<?xml version="1.0" standalone="no"?>
<!DOCTYPE svg PUBLIC "-//W3C//DTD SVG 1.1//EN" "http://www.w3.org/Graphics/SVG/1.1/DTD/svg11.dtd" >
<svg>
<metadata>
Created by FontForge 20090914 at Thu Nov  8 14:29:36 2018
 By www-data
Copyright (c) 2000 The Hoefler Type Foundry, Inc., dba Hoefler &#38; Frere-Jones. All Rights Reserved.
</metadata>
<defs>
<font id="GothamPro" horiz-adv-x="500" >
  <font-face 
    font-family="Gotham Pro"
    font-weight="400"
    font-stretch="normal"
    units-per-em="1000"
    panose-1="2 0 5 3 4 0 0 2 0 4"
    ascent="800"
    descent="-200"
    x-height="517"
    cap-height="700"
    bbox="-68 -196 1158 907"
    underline-thickness="20"
    underline-position="-113"
    unicode-range="U+0020-U+FB04"
  />
<missing-glyph 
d="M0 0v700h500v-700h-500zM81 49h339l-170 255zM49 96l171 254l-171 254v-508zM450 96v508l-171 -254zM250 395l170 255h-339z" />
    <glyph glyph-name="fi" unicode="fi" horiz-adv-x="631" 
d="M115 0v449h-71v67h71v45c0 58.667 15 103 45 133c26.667 26.667 63.667 40 111 40c32.667 0 61 -4.33301 85 -13v-67c-30 8.66699 -55 13 -75 13c-60 0 -90 -36.667 -90 -110v-42h164v-66h-163v-449h-77zM461 0v517h76v-517h-76zM455 630v85h88v-85h-88z" />
    <glyph glyph-name="fl" unicode="fl" horiz-adv-x="631" 
d="M115 0v449h-71v67h71v45c0 58.667 15 103 45 133c26.667 26.667 63.667 40 111 40c32.667 0 61 -4.33301 85 -13v-67c-30 8.66699 -55 13 -75 13c-60 0 -90 -36.667 -90 -110v-42h164v-66h-163v-449h-77zM461 0v730h76v-730h-76z" />
    <glyph glyph-name="ffi" unicode="ffi" horiz-adv-x="998" 
d="M115 0v449h-71v67h71v45c0 58.667 15 103 45 133c26.667 26.667 63.667 40 111 40c32.667 0 61 -4.33301 85 -13v-67c-30 8.66699 -55 13 -75 13c-60 0 -90 -36.667 -90 -110v-42h164v-66h-163v-449h-77zM483 0l0.000976562 449.001h-71v67h71v45
c0 59.333 14.667 103.666 44 132.999c28 26.667 65 40 111 40c33.333 0 61.666 -4.33301 84.999 -13v-67c-29.333 8.66699 -54 13 -74 13c-60 0 -90 -36.667 -90 -110v-42h163v-66h-163v-449h-76zM828.001 0.000976562v517h77v-517h-77zM823.001 630.001v85h87v-85h-87z" />
    <glyph glyph-name="ffl" unicode="ffl" horiz-adv-x="998" 
d="M115 0v449h-71v67h71v45c0 58.667 15 103 45 133c26.667 26.667 63.667 40 111 40c32.667 0 61 -4.33301 85 -13v-67c-30 8.66699 -55 13 -75 13c-60 0 -90 -36.667 -90 -110v-42h164v-66h-163v-449h-77zM483 0l0.000976562 449.001h-71v67h71v45
c0 59.333 14.667 103.666 44 132.999c28 26.667 65 40 111 40c33.333 0 61.666 -4.33301 84.999 -13v-67c-29.333 8.66699 -54 13 -74 13c-60 0 -90 -36.667 -90 -110v-42h163v-66h-163v-449h-76zM828.001 0.000976562v730h77v-730h-77z" />
    <glyph glyph-name=".notdef" 
d="M0 0v700h500v-700h-500zM81 49h339l-170 255zM49 96l171 254l-171 254v-508zM450 96v508l-171 -254zM250 395l170 255h-339z" />
    <glyph glyph-name="space" unicode=" " horiz-adv-x="300" 
 />
    <glyph glyph-name="exclam" unicode="!" horiz-adv-x="271" 
d="M114 198l-23 445v57h90v-57l-24 -445h-43zM90 0v105h92v-105h-92z" />
    <glyph glyph-name="quotedbl" unicode="&#x22;" horiz-adv-x="440" 
d="M260 428l31 272h92v-5l-81 -267h-42zM65 428l30 272h93v-5l-81 -267h-42z" />
    <glyph glyph-name="numbersign" unicode="#" horiz-adv-x="700" 
d="M124 0l30 177h-109v69h121l37 212h-119v69h130l30 173h70l-29 -173h190l30 173h70l-29 -173h108v-69h-120l-37 -212h118v-69h-129l-31 -177h-70l30 177h-190l-31 -177h-70zM237 246h190l36 212h-190z" />
    <glyph glyph-name="dollar" unicode="$" horiz-adv-x="636" 
d="M292 -98l-0.00292969 100c-86 8 -164.667 42.333 -236 103l45 60c62.667 -56 127.334 -87.667 194.001 -95v250c-74.667 18 -128.834 42 -162.501 72s-50.5 71.333 -50.5 124c0 51.333 19.5 94 58.5 128s89.5 52.667 151.5 56v58h64v-60
c66.667 -6 130.334 -32.667 191.001 -80l-43 -60c-45.333 38.667 -95.666 62.667 -150.999 72v-246c76 -17.333 131 -41.5 165 -72.5s51 -72.167 51 -123.5c0 -53.333 -19.667 -97 -59 -131s-90.666 -53 -153.999 -57v-98h-64zM294.997 398v234.999
c-41.333 -1.33301 -74.333 -12.666 -99 -33.999s-37 -48 -37 -80c0 -30 9.66699 -54.333 29 -73s55 -34.667 107 -48zM352.997 66.999c42 2 75.667 13.8311 101 35.498s38 49.167 38 82.5c0 30.667 -9.83301 55.334 -29.5 74.001s-56.167 34.334 -109.5 47.001v-239z" />
    <glyph glyph-name="percent" unicode="%" horiz-adv-x="834" 
d="M210 350c-46 0 -83.833 17.5 -113.5 52.5s-44.5 77.167 -44.5 126.5c0 48.667 15 90.667 45 126s68.333 53 115 53c46 0 83.667 -17.5 113 -52.5s44 -77.167 44 -126.5c0 -48.667 -15 -90.667 -45 -126s-68 -53 -114 -53zM124 0l514 700h71l-513 -700h-72zM622 -8
c-46 0 -83.666 17.5 -112.999 52.5s-44 77.167 -44 126.5c0 48.667 15 90.667 45 126s68 53 114 53s83.667 -17.5 113 -52.5s44 -77.167 44 -126.5s-14.833 -91.5 -44.5 -126.5s-67.834 -52.5 -114.501 -52.5zM212.001 406c26.667 0 48.5 11.833 65.5 35.5
s25.5 52.834 25.5 87.501s-9 63.834 -27 87.501s-40 35.5 -66 35.5c-26.667 0 -48.5 -11.833 -65.5 -35.5s-25.5 -52.834 -25.5 -87.501s9 -63.834 27 -87.501s40 -35.5 66 -35.5zM624.001 48c27.333 0 49.333 11.6689 66 35.002s25 52.666 25 87.999
c0 34.667 -9 63.834 -27 87.501s-40 35.5 -66 35.5c-26.667 0 -48.5 -11.833 -65.5 -35.5s-25.5 -52.834 -25.5 -87.501s9 -63.834 27 -87.501s40 -35.5 66 -35.5z" />
    <glyph glyph-name="ampersand" unicode="&#x26;" horiz-adv-x="696" 
d="M604 -14l-110.001 112.999c-67.333 -72.667 -143.666 -109 -228.999 -109c-64 0 -116.667 18.333 -158 55s-62 84.334 -62 143.001c0 90.667 56.333 158 169 202c-24.667 28.667 -42.5 54.834 -53.5 78.501s-16.5 49.5 -16.5 77.5c0 46.667 17.167 86 51.5 118
s78.833 48 133.5 48c48.667 0 89.167 -15.5 121.5 -46.5s48.5 -68.833 48.5 -113.5c0 -82.667 -55 -143.334 -165 -182.001l160 -163c30 43.333 58 95.333 84 156l65 -30c-35.333 -75.333 -69 -134 -101 -176l122 -125zM289.999 414.999
c90 30.667 135.001 75.667 135.001 135c0 28 -9.33301 51.167 -28 69.5s-42.334 27.5 -71.001 27.5c-31.333 0 -56.833 -9.66699 -76.5 -29s-29.5 -44 -29.5 -74c0 -20.667 5 -40.167 15 -58.5s28.333 -41.833 55 -70.5zM271 56.999c61.333 0 119.667 30.333 175 91
l-187 193c-44.667 -16.667 -78.167 -38.167 -100.5 -64.5s-33.5 -55.5 -33.5 -87.5c0 -38 13.667 -69.5 41 -94.5s62.333 -37.5 105 -37.5z" />
    <glyph glyph-name="quotesingle" unicode="'" horiz-adv-x="245" 
d="M65 428l30 272h94v-5l-81 -267h-43z" />
    <glyph glyph-name="parenleft" unicode="(" horiz-adv-x="434" 
d="M345 -141c-184.667 104 -277 246.669 -277 428.002s92.333 324 277 428l33 -51c-154.667 -98.667 -232 -224.334 -232 -377.001s77.333 -278.334 232 -377.001z" />
    <glyph glyph-name="parenright" unicode=")" horiz-adv-x="434" 
d="M89 -141l-33 50.998c154.667 98.667 232 224.334 232 377.001s-77.333 278.334 -232 377.001l33 51c184.667 -104 277 -246.667 277 -428s-92.333 -324 -277 -428z" />
    <glyph glyph-name="asterisk" unicode="*" horiz-adv-x="430" 
d="M189 397l10 125l-103 -73l-27 47l116 53l-116 54l27 46l103 -72l-10 125h52l-10 -125l103 72l27 -46l-116 -54l116 -53l-27 -47l-103 73l10 -125h-52z" />
    <glyph glyph-name="plus" unicode="+" horiz-adv-x="640" 
d="M283 110v206h-208v72h208v206h74v-206h208v-72h-208v-206h-74z" />
    <glyph glyph-name="comma" unicode="," horiz-adv-x="245" 
d="M58 -122l-11.999 34.999c44.667 16.667 67 42.334 67 77.001v10h-36v105h92v-90c0 -40 -8.83301 -70.667 -26.5 -92s-45.834 -36.333 -84.501 -45z" />
    <glyph glyph-name="hyphen" unicode="-" horiz-adv-x="408" 
d="M65 260v81h278v-81h-278z" />
    <glyph glyph-name="period" unicode="." horiz-adv-x="245" 
d="M77 0v105h92v-105h-92z" />
    <glyph glyph-name="slash" unicode="/" horiz-adv-x="508" 
d="M-21 -128l464 926h71l-464 -926h-71z" />
    <glyph glyph-name="zero" unicode="0" horiz-adv-x="715" 
d="M357 -12c-88 0 -159.167 34.833 -213.5 104.5s-81.5 155.5 -81.5 257.5c0 100.667 27.5 186.167 82.5 256.5s126.5 105.5 214.5 105.5s159 -34.833 213 -104.5s81 -155.5 81 -257.5c0 -100.667 -27.333 -186.167 -82 -256.5s-126 -105.5 -214 -105.5zM359 60
c63.333 0 114.499 28.167 153.499 84.5s58.5 124.833 58.5 205.5c0 79.333 -19.833 147.5 -59.5 204.5s-91.167 85.5 -154.5 85.5s-114.666 -28.167 -153.999 -84.5s-59 -124.833 -59 -205.5c0 -79.333 20 -147.5 60 -204.5s91.667 -85.5 155 -85.5z" />
    <glyph glyph-name="one" unicode="1" horiz-adv-x="358" 
d="M179 0v623l-132 -41l-19 64l171 59h58v-705h-78z" />
    <glyph glyph-name="two" unicode="2" horiz-adv-x="599" 
d="M48 0l-0.000976562 60.999l254 224c54.667 48 92.667 88 114 120s32 65.333 32 100c0 40 -13.667 72.333 -41 97s-60.666 37 -99.999 37c-38 0 -71.5 -9.66699 -100.5 -29s-58.167 -49.666 -87.5 -90.999l-58 42c34 50.667 70 88.167 108 112.5s86 36.5 144 36.5
c62.667 0 114.5 -18.833 155.5 -56.5s61.5 -85.5 61.5 -143.5c0 -48 -13 -90.667 -39 -128s-72 -85.333 -138 -144l-187 -166h371v-72h-489z" />
    <glyph glyph-name="three" unicode="3" horiz-adv-x="613" 
d="M311 -12c-110 0 -197 41.667 -261 125l57 51c56.667 -69.333 125 -104 205 -104c43.333 0 79.666 12.667 108.999 38s44 58.666 44 99.999c0 42.667 -18 75.834 -54 99.501s-83.333 35.5 -142 35.5h-45l-16 47l221 249h-342v71h447v-58l-220 -244
c66.667 -5.33301 121.834 -24.5 165.501 -57.5s65.5 -80.167 65.5 -141.5s-22.5 -111.833 -67.5 -151.5s-100.5 -59.5 -166.5 -59.5z" />
    <glyph glyph-name="four" unicode="4" horiz-adv-x="671" 
d="M432 0v166h-369l-20 57l396 482h69v-473h109v-66h-109v-166h-76zM138 232h294v361z" />
    <glyph glyph-name="five" unicode="5" horiz-adv-x="612" 
d="M303 -12c-92.667 0 -176.001 37.001 -250.001 111.001l52 57c66 -64 132.333 -96 199 -96c50 0 90.667 14.667 122 44s47 67 47 113c0 43.333 -16.167 78.666 -48.5 105.999s-74.166 41 -125.499 41c-48 0 -97 -13.333 -147 -40l-53 35l20 341h403v-73h-334l-15 -224
c47.333 20.667 93.333 31 138 31c70 0 127.833 -19.5 173.5 -58.5s68.5 -91.5 68.5 -157.5c0 -68 -23.333 -123.333 -70 -166s-106.667 -64 -180 -64z" />
    <glyph glyph-name="six" unicode="6" horiz-adv-x="647" 
d="M333 -12c-84 0 -150.332 27.668 -198.999 83.001s-73 142.333 -73 261c0 109.333 26.167 200 78.5 272s123.166 108 212.499 108c72.667 0 141.667 -26.667 207 -80l-46 -61c-54.667 46 -109.667 69 -165 69c-62 0 -111.667 -28.333 -149 -85s-56 -130.334 -56 -221.001
v-3c48.667 71.333 115 107 199 107c67.333 0 124.5 -20 171.5 -60s70.5 -92.333 70.5 -157c0 -67.333 -24 -123 -72 -167s-107.667 -66 -179 -66zM334.001 58.001c50.667 0 91.501 15.333 122.501 46s46.5 69.334 46.5 116.001c0 43.333 -16 79.166 -48 107.499
s-73 42.5 -123 42.5c-50.667 0 -92.5 -15.5 -125.5 -46.5s-49.5 -67.167 -49.5 -108.5c0 -44.667 16.667 -82 50 -112s75.666 -45 126.999 -45z" />
    <glyph glyph-name="seven" unicode="7" horiz-adv-x="596" 
d="M137 0l316 628h-385v72h475v-59l-318 -641h-88z" />
    <glyph glyph-name="eight" unicode="8" horiz-adv-x="630" 
d="M315 -10c-75.333 0 -138 18.668 -188 56.001s-75 85.333 -75 144c0 40 13 74.667 39 104s61 52 105 68c-80 36.667 -120 91 -120 163c0 52.667 23.5 96.667 70.5 132s103.167 53 168.5 53s121.5 -17.667 168.5 -53s70.5 -80 70.5 -134
c0 -70.667 -40 -124.334 -120 -161.001c96 -36 144 -93.667 144 -173c0 -58.667 -25 -106.5 -75 -143.5s-112.667 -55.5 -188 -55.5zM315 390.001c45.333 0 83.333 12 114 36s46 55.333 46 94c0 34.667 -15.333 63.5 -46 86.5s-68.667 34.5 -114 34.5
c-46 0 -84.167 -11.5 -114.5 -34.5s-45.5 -52.5 -45.5 -88.5c0 -37.333 15.333 -68 46 -92s68.667 -36 114 -36zM315 59.001c56 0 100.499 12.666 133.499 37.999s49.5 57 49.5 95c0 38.667 -17.667 70.5 -53 95.5s-78.666 37.5 -129.999 37.5
c-52 0 -95.5 -12.667 -130.5 -38s-52.5 -57.666 -52.5 -96.999c0 -36.667 16.5 -67.667 49.5 -93s77.5 -38 133.5 -38z" />
    <glyph glyph-name="nine" unicode="9" horiz-adv-x="647" 
d="M295 -12c-74.667 0 -146.666 28.666 -215.999 85.999l46 61c56.667 -50 114 -75 172 -75c62 0 112.167 27.833 150.5 83.5s57.5 127.167 57.5 214.5v9c-46.667 -74.667 -112.667 -112 -198 -112c-72 0 -130.667 20.5 -176 61.5s-68 93.5 -68 157.5
c0 67.333 23.667 123.833 71 169.5s107.666 68.5 180.999 68.5c82.667 0 148.5 -27.667 197.5 -83s73.5 -142.666 73.5 -261.999c0 -111.333 -27 -202.333 -81 -273s-124 -106 -210 -106zM316.001 322.999c51.333 0 93.168 16.002 125.501 48.002s48.5 69.333 48.5 112
c0 45.333 -16.667 83.166 -50 113.499s-76 45.5 -128 45.5c-50.667 0 -91.334 -16.167 -122.001 -48.5s-46 -71.5 -46 -117.5c0 -44.667 16 -81.334 48 -110.001s73.333 -43 124 -43z" />
    <glyph glyph-name="colon" unicode=":" horiz-adv-x="255" 
d="M82 412v105h92v-105h-92zM82 0v105h92v-105h-92z" />
    <glyph glyph-name="semicolon" unicode=";" horiz-adv-x="255" 
d="M82 412v105h92v-105h-92zM63 -122l-11.999 34.999c44.667 16.667 67 42.334 67 77.001v10h-36v105h92v-90c0 -40 -8.83301 -70.667 -26.5 -92s-45.834 -36.333 -84.501 -45z" />
    <glyph glyph-name="less" unicode="&#x3c;" horiz-adv-x="640" 
d="M541 86l-469 233v66l469 233v-77l-385 -188l385 -189v-78z" />
    <glyph glyph-name="equal" unicode="=" horiz-adv-x="640" 
d="M90 432v74h460v-74h-460zM90 198v74h460v-74h-460z" />
    <glyph glyph-name="greater" unicode="&#x3e;" horiz-adv-x="640" 
d="M99 86v77l385 188l-385 189v78l469 -233v-66z" />
    <glyph glyph-name="question" unicode="?" horiz-adv-x="537" 
d="M220 198l-15 162.003l5 5c64 1.33301 113.167 14.666 147.5 39.999s51.5 59.666 51.5 102.999c0 36.667 -13.333 67.5 -40 92.5s-62 37.5 -106 37.5c-67.333 0 -128 -31.333 -182 -94l-51 49c64 77.333 142.333 116 235 116c66.667 0 120.667 -18.667 162 -56
s62 -85.333 62 -144c0 -59.333 -19.333 -105.833 -58 -139.5s-88.667 -54.834 -150 -63.501l-10 -108h-51zM199 0.00292969v105h92v-105h-92z" />
    <glyph glyph-name="at" unicode="@" horiz-adv-x="980" 
d="M499 -162c-126.667 0 -232.668 42.499 -318.001 127.499s-128 187.833 -128 308.5c0 120 42.5 223 127.5 309s188.5 129 310.5 129c120.667 0 223.5 -39.5 308.5 -118.5s127.5 -171.5 127.5 -277.5c0 -79.333 -18.5 -140 -55.5 -182s-80.833 -63 -131.5 -63
c-35.333 0 -65 7.5 -89 22.5s-41 35.5 -51 61.5c-47.333 -56 -102.333 -84 -165 -84c-50 0 -92.333 16.833 -127 50.5s-52 77.5 -52 131.5c0 68.667 23.833 127.334 71.5 176.001s100.834 73 159.501 73c66 0 114.667 -27.667 146 -83l13 69l67 -9l-40 -227
c-4.66699 -26 -7 -46.333 -7 -61c0 -25.333 7.5 -45.166 22.5 -59.499s35.833 -21.5 62.5 -21.5c38.667 0 71.667 17.667 99 53s41 86.333 41 153c0 94.667 -38.833 178.667 -116.5 252s-172.167 110 -283.5 110c-114 0 -209.5 -39.333 -286.5 -118s-115.5 -174 -115.5 -286
c0 -112.667 38.667 -207.834 116 -285.501s175.333 -116.5 294 -116.5c88.667 0 171.667 22.667 249 68l16 -27c-82 -50 -170.333 -75 -265 -75zM449.999 132.999c42.667 0 80.667 18.168 114 54.501s50 78.166 50 125.499c0 36.667 -11.5 67 -34.5 91s-52.167 36 -87.5 36
c-43.333 0 -81.5 -17.667 -114.5 -53s-49.5 -78.333 -49.5 -129c0 -38.667 11.333 -69.167 34 -91.5s52 -33.5 88 -33.5z" />
    <glyph glyph-name="A" unicode="A" horiz-adv-x="790" 
d="M39 0l319 705h74l319 -705h-85l-82 185h-381l-83 -185h-81zM234 256h319l-159 357z" />
    <glyph glyph-name="B" unicode="B" horiz-adv-x="722" 
d="M99 0v700h298c82 0 143 -20.667 183 -62c30 -31.333 45 -69.333 45 -114c0 -76 -37 -130 -111 -162c100 -30 150 -87 150 -171c0 -59.333 -23 -106 -69 -140s-107.667 -51 -185 -51h-311zM177 388l207 0.000976562c48.667 0 87.667 11 117 33s44 53.333 44 94
c0 35.333 -13.5 63.166 -40.5 83.499s-65.167 30.5 -114.5 30.5h-213v-241zM177 71.001l235.001 -0.000976562c53.333 0 95.333 11.167 126 33.5s46 53.5 46 93.5c0 38.667 -15.833 68.334 -47.5 89.001s-77.834 31 -138.501 31h-221v-247z" />
    <glyph glyph-name="C" unicode="C" horiz-adv-x="738" 
d="M419 -12c-100.667 0 -184.333 34.833 -251 104.5s-100 155.5 -100 257.5c0 100.667 33.667 186.167 101 256.5s151.666 105.5 252.999 105.5c58.667 0 108.667 -9.5 150 -28.5s81.666 -47.167 120.999 -84.5l-52 -56c-67.333 64 -140.666 96 -219.999 96
c-77.333 0 -141.833 -27.667 -193.5 -83s-77.5 -124 -77.5 -206c0 -81.333 26 -149.833 78 -205.5s116.333 -83.5 193 -83.5c45.333 0 85.333 8.33301 120 25s70 42 106 76l52 -55c-39.333 -39.333 -80.666 -69 -123.999 -89s-95.333 -30 -156 -30z" />
    <glyph glyph-name="D" unicode="D" horiz-adv-x="782" 
d="M99 0l0.00195312 700h243c109.333 0 198.666 -33.167 267.999 -99.5s104 -149.833 104 -250.5c0 -100 -34.833 -183.333 -104.5 -250s-158.834 -100 -267.501 -100h-243zM178.002 73h164c87.333 0 157.5 26.167 210.5 78.5s79.5 118.5 79.5 198.5
c0 79.333 -26.667 145.333 -80 198s-123.333 79 -210 79h-164v-554z" />
    <glyph glyph-name="E" unicode="E" horiz-adv-x="670" 
d="M99 0v700h506v-72h-427v-239h382v-72h-382v-245h432v-72h-511z" />
    <glyph glyph-name="F" unicode="F" horiz-adv-x="656" 
d="M99 0v700h503v-73h-424v-250h379v-72h-379v-305h-79z" />
    <glyph glyph-name="G" unicode="G" horiz-adv-x="784" 
d="M424 -12c-107.333 0 -193.498 34.5 -258.498 103.5s-97.5 155.167 -97.5 258.5c0 98.667 33 183.667 99 255s150 107 252 107c56 0 104.167 -7.66699 144.5 -23s79.166 -38.666 116.499 -69.999l-51 -60c-61.333 53.333 -132.333 80 -213 80
c-76.667 0 -140.167 -28.167 -190.5 -84.5s-75.5 -124.5 -75.5 -204.5c0 -84.667 25.167 -154.334 75.5 -209.001s117.5 -82 201.5 -82c77.333 0 144.666 23.333 201.999 70v174h-213v71h289v-279c-80 -71.333 -173.667 -107 -281 -107z" />
    <glyph glyph-name="H" unicode="H" horiz-adv-x="760" 
d="M99 0v700h79v-311h404v311h79v-700h-79v315h-404v-315h-79z" />
    <glyph glyph-name="I" unicode="I" horiz-adv-x="291" 
d="M106 0v700h79v-700h-79z" />
    <glyph glyph-name="J" unicode="J" horiz-adv-x="553" 
d="M247 -10c-93.333 0 -165.332 41.333 -215.999 124l57 49c22.667 -34 46.167 -59.167 70.5 -75.5s54.166 -24.5 89.499 -24.5c40.667 0 73.667 14.5 99 43.5s38 70.5 38 124.5v469h80v-468c0 -80 -21.333 -141.333 -64 -184c-40 -38.667 -91.333 -58 -154 -58z" />
    <glyph glyph-name="K" unicode="K" horiz-adv-x="719" 
d="M99 0v700h79v-418l402 418h102l-300 -306l313 -394h-99l-269 339l-149 -151v-188h-79z" />
    <glyph glyph-name="L" unicode="L" horiz-adv-x="619" 
d="M99 0v700h79v-627h394v-73h-473z" />
    <glyph glyph-name="M" unicode="M" horiz-adv-x="868" 
d="M99 0v700h80l255 -382l255 382h80v-700h-79v567l-255 -375h-4l-255 374v-566h-77z" />
    <glyph glyph-name="N" unicode="N" horiz-adv-x="790" 
d="M99 0v700h74l441 -561v561h77v-700h-63l-452 574v-574h-77z" />
    <glyph glyph-name="O" unicode="O" horiz-adv-x="850" 
d="M424 -12c-104 0 -189.333 35.333 -256 106s-100 156 -100 256c0 99.333 33.667 184.5 101 255.5s153 106.5 257 106.5s189.333 -35.333 256 -106s100 -156 100 -256c0 -99.333 -33.667 -184.5 -101 -255.5s-153 -106.5 -257 -106.5zM426 61
c79.333 0 144.833 27.833 196.5 83.5s77.5 124.167 77.5 205.5c0 80.667 -26.167 149 -78.5 205s-118.166 84 -197.499 84s-144.833 -27.833 -196.5 -83.5s-77.5 -124.167 -77.5 -205.5c0 -80.667 26.167 -149 78.5 -205s118.166 -84 197.499 -84z" />
    <glyph glyph-name="P" unicode="P" horiz-adv-x="668" 
d="M99 0v700h262c80 0 143.667 -20 191 -60s71 -94.667 71 -164c0 -72.667 -26.167 -129 -78.5 -169s-117.833 -60 -196.5 -60h-170v-247h-79zM178 319l173 0.000976562c58 0 104.5 14.167 139.5 42.5s52.5 66.166 52.5 113.499c0 48.667 -16.833 86.167 -50.5 112.5
s-79.5 39.5 -137.5 39.5h-177v-308z" />
    <glyph glyph-name="Q" unicode="Q" horiz-adv-x="850" 
d="M737 -21l-91.999 84c-62.667 -50 -136.334 -75 -221.001 -75c-104 0 -189.333 35.333 -256 106s-100 156 -100 256c0 99.333 33.667 184.5 101 255.5s153 106.5 257 106.5s189.333 -35.333 256 -106s100 -156 100 -256c0 -90 -28 -168.333 -84 -235l93 -77zM426.001 61
c61.333 0 115 17.667 161 53l-130 111l53 59l129 -117c40.667 52.667 61 113.667 61 183c0 80.667 -26.167 149 -78.5 205s-118.166 84 -197.499 84s-144.833 -27.833 -196.5 -83.5s-77.5 -124.167 -77.5 -205.5c0 -80.667 26.167 -149 78.5 -205s118.166 -84 197.499 -84z
" />
    <glyph glyph-name="R" unicode="R" horiz-adv-x="723" 
d="M99 0v700.001h301c86 0 152.333 -23.333 199 -70c36 -36 54 -82.667 54 -140c0 -56 -17.333 -101.333 -52 -136s-80.667 -57.334 -138 -68.001l215 -286h-97l-203 272h-200v-272h-79zM178 343.001l215.001 0.000976562c53.333 0 96.666 13 129.999 39s50 61.667 50 107
c0 43.333 -15.833 77.166 -47.5 101.499s-75.5 36.5 -131.5 36.5h-216v-284z" />
    <glyph glyph-name="S" unicode="S" horiz-adv-x="640" 
d="M339 -10c-107.333 0 -202.667 37.3311 -286 111.998l49 58c37.333 -34 74.833 -59 112.5 -75s80.167 -24 127.5 -24c46.667 0 84.334 11.167 113.001 33.5s43 51.5 43 87.5c0 34 -12.667 61 -38 81s-73.333 37.333 -144 52c-83.333 18 -143.333 42.333 -180 73
s-55 74.334 -55 131.001c0 55.333 21.667 101 65 137s98.333 54 165 54c92.667 0 174.667 -28.667 246 -86l-46 -61c-62 50.667 -129.333 76 -202 76c-44.667 0 -80.667 -10.833 -108 -32.5s-41 -49.167 -41 -82.5c0 -34.667 13.167 -62 39.5 -82s76.5 -38 150.5 -54
c79.333 -17.333 137.166 -41.5 173.499 -72.5s54.5 -73.5 54.5 -127.5c0 -59.333 -22.333 -107.166 -67 -143.499s-102 -54.5 -172 -54.5z" />
    <glyph glyph-name="T" unicode="T" horiz-adv-x="648" 
d="M284 0v627h-235v73h550v-73h-235v-627h-80z" />
    <glyph glyph-name="U" unicode="U" horiz-adv-x="759" 
d="M379 -11c-88.667 0 -159.333 26.501 -212 79.501s-79 127.833 -79 224.5v407h79v-402c0 -75.333 18.833 -133.5 56.5 -174.5s90.167 -61.5 157.5 -61.5c66 0 117.667 19.667 155 59s56 96.666 56 171.999v407h79v-401c0 -100 -26.333 -176.667 -79 -230
s-123.667 -80 -213 -80z" />
    <glyph glyph-name="V" unicode="V" horiz-adv-x="750" 
d="M340 -5l-301 705h88l249 -603l250 603h85l-301 -705h-70z" />
    <glyph glyph-name="W" unicode="W" horiz-adv-x="1107" 
d="M295 -5l-250 705h86l200 -583l192 585h65l192 -585l200 583h83l-250 -705h-67l-192 568l-193 -568h-66z" />
    <glyph glyph-name="X" unicode="X" horiz-adv-x="725" 
d="M46 0l269 357l-259 343h93l215 -286l213 286h92l-259 -342l269 -358h-94l-224 301l-224 -301h-91z" />
    <glyph glyph-name="Y" unicode="Y" horiz-adv-x="716" 
d="M318 0v277l-291 423h96l236 -350l238 350h92l-291 -422v-278h-80z" />
    <glyph glyph-name="Z" unicode="Z" horiz-adv-x="693" 
d="M67 0v53l453 576h-438v71h546v-53l-454 -576h454v-71h-561z" />
    <glyph glyph-name="bracketleft" unicode="[" horiz-adv-x="439" 
d="M94 -130v830h286v-60h-213v-710h213v-60h-286z" />
    <glyph glyph-name="backslash" unicode="\" horiz-adv-x="508" 
d="M458 -128l-464 926h71l464 -926h-71z" />
    <glyph glyph-name="bracketright" unicode="]" horiz-adv-x="439" 
d="M59 -130v60h214v710h-214v60h286v-830h-286z" />
    <glyph glyph-name="asciicircum" unicode="^" 
d="M65 493l155 209h60l155 -209h-68l-118 154l-118 -154h-66z" />
    <glyph glyph-name="underscore" unicode="_" horiz-adv-x="600" 
d="M-2 -160v63h604v-63h-604z" />
    <glyph glyph-name="grave" unicode="`" 
d="M257 595l-113 108l80 37l95 -145h-62z" />
    <glyph glyph-name="a" unicode="a" horiz-adv-x="579" 
d="M240 -11c-52.667 0 -97.999 14.333 -135.999 43s-57 68.667 -57 120c0 54 20 95.667 60 125s93.667 44 161 44c53.333 0 106 -7.33301 158 -22v16c0 45.333 -13.333 80 -40 104s-64.334 36 -113.001 36c-50.667 0 -103 -12.333 -157 -37l-23 63
c64 29.333 126.667 44 188 44c73.333 0 129 -19 167 -57c36 -36 54 -86.667 54 -152v-316h-76v77c-46 -58.667 -108 -88 -186 -88zM255.001 51c48 0 88.667 13 122 39s50 59.333 50 100v48c-50.667 14.667 -101 22 -151 22c-47.333 0 -84.333 -9.5 -111 -28.5
s-40 -44.833 -40 -77.5c0 -31.333 12.5 -56.333 37.5 -75s55.833 -28 92.5 -28z" />
    <glyph glyph-name="b" unicode="b" horiz-adv-x="664" 
d="M361 -11c-81.333 0 -147.333 36.667 -198 110v-99h-77v730h77v-317c52 76.667 118 115 198 115c66 0 123.667 -24.5 173 -73.5s74 -114.5 74 -196.5c0 -80.667 -24.667 -145.667 -74 -195s-107 -74 -173 -74zM347 58c52 0 95.333 18.168 130 54.501s52 85.166 52 146.499
c0 59.333 -17.667 107.5 -53 144.5s-78.333 55.5 -129 55.5c-50 0 -93.667 -19 -131 -57s-56 -86 -56 -144s18.667 -105.833 56 -143.5s81 -56.5 131 -56.5z" />
    <glyph glyph-name="c" unicode="c" horiz-adv-x="571" 
d="M319 -12c-74.667 0 -137.5 26.5 -188.5 79.5s-76.5 116.5 -76.5 190.5s25.5 137.5 76.5 190.5s113.833 79.5 188.5 79.5c80 0 149 -30.667 207 -92l-49 -52c-48 50.667 -101 76 -159 76c-52 0 -95.833 -19.5 -131.5 -58.5s-53.5 -86.833 -53.5 -143.5
c0 -56 18.167 -103.5 54.5 -142.5s81.5 -58.5 135.5 -58.5c55.333 0 107.333 26 156 78l51 -47c-60 -66.667 -130.333 -100 -211 -100z" />
    <glyph glyph-name="d" unicode="d" horiz-adv-x="664" 
d="M303 -11c-66 0 -123.667 24.5 -173 73.5s-74 114.5 -74 196.5c0 80.667 24.667 145.667 74 195s107 74 173 74c81.333 0 147.333 -36.667 198 -110v312h77v-730h-77v104c-52 -76.667 -118 -115 -198 -115zM317 58c50 0 93.667 18.999 131 56.999s56 86.333 56 145
c0 57.333 -18.667 104.833 -56 142.5s-81 56.5 -131 56.5c-52 0 -95.333 -18.167 -130 -54.5s-52 -85.166 -52 -146.499c0 -59.333 17.667 -107.5 53 -144.5s78.333 -55.5 129 -55.5z" />
    <glyph glyph-name="e" unicode="e" horiz-adv-x="592" 
d="M132 227c5.33301 -52.667 25.1689 -94.498 59.502 -125.498s75.166 -46.5 122.499 -46.5c62 0 116.333 24.333 163 73l48 -43c-58 -64.667 -129 -97 -213 -97c-72.667 0 -133.834 25.167 -183.501 75.5s-74.5 115.166 -74.5 194.499c0 75.333 23.667 139.166 71 191.499
s106.333 78.5 177 78.5c74 0 132.667 -26 176 -78s65 -117.333 65 -196c0 -10 -0.333008 -19 -1 -27h-410zM132.003 289.002l332.999 0.000976562c-4.66699 50 -21.167 91.5 -49.5 124.5s-66.833 49.5 -115.5 49.5c-44 0 -81.667 -16.333 -113 -49
s-49.666 -74.334 -54.999 -125.001z" />
    <glyph glyph-name="f" unicode="f" horiz-adv-x="367" 
d="M115 0v449h-71v67h71v45c0 58.667 15 103 45 133c26.667 26.667 63.667 40 111 40c32.667 0 61 -4.33301 85 -13v-67c-30 8.66699 -55 13 -75 13c-60 0 -90 -36.667 -90 -110v-42h164v-66h-163v-449h-77z" />
    <glyph glyph-name="g" unicode="g" horiz-adv-x="664" 
d="M315 -162c-87.333 0 -165.668 24 -235.001 72l35 60c60.667 -44 127 -66 199 -66c58 0 103.833 15.833 137.5 47.5s50.5 77.167 50.5 136.5v61c-54.667 -72.667 -122.334 -109 -203.001 -109c-65.333 0 -122.166 22.5 -170.499 67.5s-72.5 103.833 -72.5 176.5
s24.333 131.5 73 176.5s105.334 67.5 170.001 67.5c82.667 0 150 -34.667 202 -104v93h77v-427c0 -78 -22 -139 -66 -183c-46 -46 -111.667 -69 -197 -69zM313.998 108c50.667 0 95 16.668 133 50.001s57 75.666 57 126.999s-18.833 93.333 -56.5 126s-82.167 49 -133.5 49
c-50.667 0 -93.167 -16.167 -127.5 -48.5s-51.5 -74.833 -51.5 -127.5c0 -50.667 17.5 -92.667 52.5 -126s77.167 -50 126.5 -50z" />
    <glyph glyph-name="h" unicode="h" horiz-adv-x="616" 
d="M86 0l0.000976562 730h77v-303c40.667 67.333 99.667 101 177 101c61.333 0 109.666 -18.833 144.999 -56.5s53 -87.834 53 -150.501v-321h-77v302c0 48.667 -12.5 86.834 -37.5 114.501s-60.167 41.5 -105.5 41.5c-44.667 0 -81.667 -15 -111 -45s-44 -69 -44 -117v-296
h-77z" />
    <glyph glyph-name="i" unicode="i" horiz-adv-x="263" 
d="M88 630v85h88v-85h-88zM93 0v517h77v-517h-77z" />
    <glyph glyph-name="j" unicode="j" horiz-adv-x="263" 
d="M88 630v85h88v-85h-88zM44 -163c-18 0 -34 1.66699 -48 5v63c12 -2 24.667 -3 38 -3c39.333 0 59 23 59 69v546h77v-547c0 -44.667 -11 -78 -33 -100s-53 -33 -93 -33z" />
    <glyph glyph-name="k" unicode="k" horiz-adv-x="569" 
d="M86 0v730h77v-504l279 291h96l-217 -222l224 -295h-92l-185 241l-105 -106v-135h-77z" />
    <glyph glyph-name="l" unicode="l" horiz-adv-x="263" 
d="M93 0v730h77v-730h-77z" />
    <glyph glyph-name="m" unicode="m" horiz-adv-x="951" 
d="M86 0v517h77v-87c43.333 65.333 99 98 167 98c77.333 0 132.666 -34.333 165.999 -103c44.667 68.667 105.334 103 182.001 103c59.333 0 106.166 -18.667 140.499 -56s51.5 -88 51.5 -152v-320h-77v302c0 50 -11.833 88.5 -35.5 115.5s-56.5 40.5 -98.5 40.5
c-40.667 0 -74.667 -14.333 -102 -43s-41 -67.667 -41 -117v-298h-76v304c0 48 -11.833 85.667 -35.5 113s-56.167 41 -97.5 41s-75.666 -15.333 -102.999 -46s-41 -69.667 -41 -117v-295h-77z" />
    <glyph glyph-name="n" unicode="n" horiz-adv-x="616" 
d="M86 0l0.000976562 517h77v-90c40.667 67.333 99.667 101 177 101c61.333 0 109.666 -18.833 144.999 -56.5s53 -87.834 53 -150.501v-321h-77v302c0 48.667 -12.5 86.834 -37.5 114.501s-60.167 41.5 -105.5 41.5c-44.667 0 -81.667 -15 -111 -45s-44 -69 -44 -117v-296
h-77z" />
    <glyph glyph-name="o" unicode="o" horiz-adv-x="646" 
d="M322 -12c-76.667 0 -140.501 26.333 -191.501 79s-76.5 116.334 -76.5 191.001c0 74 25.833 137.5 77.5 190.5s115.834 79.5 192.501 79.5s140.667 -26.333 192 -79s77 -116.334 77 -191.001c0 -74 -26 -137.5 -78 -190.5s-116.333 -79.5 -193 -79.5zM323.999 57
c55.333 0 100.832 19.332 136.499 57.999s53.5 86.334 53.5 143.001c0 56 -18.5 103.667 -55.5 143s-82.5 59 -136.5 59c-55.333 0 -100.666 -19.5 -135.999 -58.5s-53 -86.833 -53 -143.5c0 -56 18.333 -103.5 55 -142.5s82 -58.5 136 -58.5z" />
    <glyph glyph-name="p" unicode="p" horiz-adv-x="664" 
d="M86 -160v677h77v-104c52 76.667 118 115 198 115c66 0 123.667 -24.5 173 -73.5s74 -114.5 74 -196.5c0 -80.667 -24.667 -145.667 -74 -195s-107 -74 -173 -74c-81.333 0 -147.333 36.667 -198 110v-259h-77zM347 58c52 0 95.333 18.168 130 54.501
s52 85.166 52 146.499c0 59.333 -17.667 107.5 -53 144.5s-78.333 55.5 -129 55.5c-50 0 -93.667 -19 -131 -57s-56 -86 -56 -144s18.667 -105.833 56 -143.5s81 -56.5 131 -56.5z" />
    <glyph glyph-name="q" unicode="q" horiz-adv-x="664" 
d="M501 -160v264c-52 -76.667 -118 -115 -198 -115c-66 0 -123.667 24.5 -173 73.5s-74 114.5 -74 196.5c0 80.667 24.667 145.667 74 195s107 74 173 74c81.333 0 147.333 -36.667 198 -110v99h77v-677h-77zM317 58c50 0 93.667 18.999 131 56.999s56 86.333 56 145
c0 57.333 -18.667 104.833 -56 142.5s-81 56.5 -131 56.5c-52 0 -95.333 -18.167 -130 -54.5s-52 -85.166 -52 -146.499c0 -59.333 17.667 -107.5 53 -144.5s78.333 -55.5 129 -55.5z" />
    <glyph glyph-name="r" unicode="r" horiz-adv-x="405" 
d="M86 0v516.998h77v-135c20 44.667 48.333 80.334 85 107.001s78.667 39 126 37v-83h-6c-59.333 0 -108.333 -20.667 -147 -62s-58 -99.666 -58 -174.999v-206h-77z" />
    <glyph glyph-name="s" unicode="s" horiz-adv-x="498" 
d="M257 -10c-37.333 0 -75.1689 6.83398 -113.502 20.501s-71.833 32.167 -100.5 55.5l39 55c58.667 -44 118.334 -66 179.001 -66c31.333 0 57 7.66699 77 23s30 35.666 30 60.999c0 23.333 -10.833 41.333 -32.5 54s-53.834 25 -96.501 37c-26 7.33301 -46.667 14 -62 20
s-32.666 14.5 -51.999 25.5s-33.666 25 -42.999 42s-14 37.167 -14 60.5c0 44 16.5 79.667 49.5 107s75.167 41 126.5 41c66.667 0 128.667 -19 186 -57l-35 -58c-51.333 33.333 -102.333 50 -153 50c-30 0 -54.167 -7.16699 -72.5 -21.5s-27.5 -32.833 -27.5 -55.5
c0 -9.33301 2.66699 -18 8 -26s11.333 -14.667 18 -20s17.167 -11 31.5 -17s25.833 -10.333 34.5 -13l41 -13c24.667 -7.33301 45 -14.333 61 -21s33 -15.667 51 -27s31.5 -25.5 40.5 -42.5s13.5 -36.833 13.5 -59.5c0 -48 -17.333 -85.833 -52 -113.5
s-78.667 -41.5 -132 -41.5z" />
    <glyph glyph-name="t" unicode="t" horiz-adv-x="404" 
d="M259 -9c-44.667 0 -80.167 11.833 -106.5 35.5s-39.5 60.5 -39.5 110.5v312h-72v68h72v156h77v-156h164v-68h-164v-302c0 -57.333 29 -86 87 -86c25.333 0 50.333 6 75 18v-66c-28 -14.667 -59 -22 -93 -22z" />
    <glyph glyph-name="u" unicode="u" horiz-adv-x="616" 
d="M276 -11c-61.333 0 -109.667 18.833 -145 56.5s-53 87.834 -53 150.501v321h77v-302c0 -48.667 12.5 -86.834 37.5 -114.501s60.167 -41.5 105.5 -41.5c44.667 0 81.667 15 111 45s44 69 44 117v296h76v-517h-76v90c-42 -67.333 -101 -101 -177 -101z" />
    <glyph glyph-name="v" unicode="v" horiz-adv-x="587" 
d="M259 -4l-224 521h85l174 -429l175 429h83l-225 -521h-68z" />
    <glyph glyph-name="w" unicode="w" horiz-adv-x="861" 
d="M223 -4l-181 521h82l136 -415l139 417h64l140 -417l136 415h80l-182 -521h-67l-139 408l-140 -408h-68z" />
    <glyph glyph-name="x" unicode="x" horiz-adv-x="574" 
d="M39 0l203 263l-195 254h88l153 -200l153 200h86l-196 -252l204 -265h-89l-160 211l-161 -211h-86z" />
    <glyph glyph-name="y" unicode="y" horiz-adv-x="591" 
d="M166 -163c-37.333 0 -74 8.66699 -110 26l26 61c24.667 -12.667 51.667 -19 81 -19c23.333 0 43 7.16699 59 21.5s31.667 39.5 47 75.5l-235 515h85l188 -431l166 431h82l-217 -534c-22 -52.667 -46.333 -90.167 -73 -112.5s-59.667 -33.5 -99 -33.5z" />
    <glyph glyph-name="z" unicode="z" horiz-adv-x="556" 
d="M56 0v49l343 403h-331v65h436v-49l-344 -403h344v-65h-448z" />
    <glyph glyph-name="braceleft" unicode="{" horiz-adv-x="483" 
d="M416 -141c-84.667 15.333 -142 38.666 -172 69.999s-45 75.333 -45 132c0 4.66699 0.166992 17 0.5 37s0.5 33 0.5 39c0 40.667 -8.83301 70.834 -26.5 90.501s-48.167 29.5 -91.5 29.5h-26v60h26c43.333 0 73.833 9.83301 91.5 29.5s26.5 49.834 26.5 90.501
c0 6 -0.166992 19 -0.5 39s-0.5 32.333 -0.5 37c0 56.667 15 100.667 45 132s87.333 54.666 172 69.999l12 -51c-66.667 -17.333 -109.334 -36.5 -128.001 -57.5s-28 -55.5 -28 -103.5c0 -6.66699 0.166992 -19 0.5 -37s0.5 -30.667 0.5 -38
c0 -40 -8.83301 -70.833 -26.5 -92.5s-43.5 -37.834 -77.5 -48.501c35.333 -11.333 61.5 -27.666 78.5 -48.999s25.5 -52 25.5 -92c0 -7.33301 -0.166992 -20 -0.5 -38s-0.5 -30.333 -0.5 -37c0 -48 9.33301 -82.5 28 -103.5s61.334 -40.167 128.001 -57.5z" />
    <glyph glyph-name="bar" unicode="|" horiz-adv-x="303" 
d="M119 -128v926h65v-926h-65z" />
    <glyph glyph-name="braceright" unicode="}" horiz-adv-x="483" 
d="M67 -141l-13 51c67.333 17.333 110.333 36.5 129 57.5s28 55.5 28 103.5c0 6.66699 -0.166992 19 -0.5 37s-0.5 30.667 -0.5 38c0 40 8.83301 70.833 26.5 92.5s43.5 37.834 77.5 48.501c-35.333 11.333 -61.5 27.666 -78.5 48.999s-25.5 52 -25.5 92
c0 7.33301 0.166992 20 0.5 38s0.5 30.333 0.5 37c0 48 -9.33301 82.5 -28 103.5s-61.667 40.167 -129 57.5l13 51c84.667 -15.333 142 -38.666 172 -69.999s45 -75.333 45 -132c0 -4.66699 -0.166992 -17 -0.5 -37s-0.5 -33 -0.5 -39
c0 -40.667 8.83301 -70.834 26.5 -90.501s47.834 -29.5 90.501 -29.5h26v-60h-26c-42.667 0 -72.834 -9.83301 -90.501 -29.5s-26.5 -49.834 -26.5 -90.501c0 -6 0.166992 -19 0.5 -39s0.5 -32.333 0.5 -37c0 -56.667 -15 -100.667 -45 -132s-87.333 -54.666 -172 -69.999z
" />
    <glyph glyph-name="asciitilde" unicode="~" horiz-adv-x="473" 
d="M120 237l-47.001 13c10 38 22.333 65.167 37 81.5s34 24.5 58 24.5c15.333 0 38.833 -6.83301 70.5 -20.5s52.834 -20.5 63.501 -20.5c12.667 0 22.5 3.5 29.5 10.5s14.5 20.167 22.5 39.5l46 -13c-10 -38 -22.167 -65.167 -36.5 -81.5s-33.5 -24.5 -57.5 -24.5
c-16 0 -39.667 6.83301 -71 20.5s-52.333 20.5 -63 20.5c-12.667 0 -22.5 -3.5 -29.5 -10.5s-14.5 -20.167 -22.5 -39.5z" />
    <glyph glyph-name="uni00A0" unicode="&#xa0;" horiz-adv-x="300" 
 />
    <glyph glyph-name="exclamdown" unicode="&#xa1;" horiz-adv-x="271" 
d="M91 0v57l23 445h43l24 -445v-57h-90zM90 595v105h92v-105h-92z" />
    <glyph glyph-name="cent" unicode="&#xa2;" horiz-adv-x="581" 
d="M212 -6l21.999 106c-52.667 18.667 -95.167 51.167 -127.5 97.5s-48.5 98.833 -48.5 157.5c0 74 25.667 137.5 77 190.5s114 79.5 188 79.5h13l15 81h65l-18 -90c46.667 -12.667 90.667 -40.667 132 -84l-50 -52c-34 34.667 -66.667 57 -98 67l-77 -392
c4.66699 -0.666992 11.667 -1 21 -1c58 0 111 25.667 159 77l48 -45c-59.333 -67.333 -129.666 -101 -210.999 -101c-12 0 -21 0.333008 -27 1l-18 -92h-65zM249.999 169l74.999 387h-4c-52 0 -95.833 -19.333 -131.5 -58s-53.5 -86.334 -53.5 -143.001
c0 -41.333 10.333 -78.666 31 -111.999s48.334 -58 83.001 -74z" />
    <glyph glyph-name="sterling" unicode="&#xa3;" horiz-adv-x="644" 
d="M67 0l0.000976562 46l84 21v228h-84v69h84v108c0 76.667 21 136 63 178c40 40 92.667 60 158 60c87.333 0 158.666 -36 213.999 -108l-61 -48c-22 27.333 -44.667 48 -68 62s-52 21 -86 21c-39.333 0 -72 -12.333 -98 -37c-28.667 -28 -43 -70.667 -43 -128v-108h279v-69
h-279v-225h355v-70h-518z" />
    <glyph glyph-name="currency" unicode="&#xa4;" horiz-adv-x="720" 
d="M430 -12c-70 0 -130.16 22.667 -180.493 68s-84.5 105.666 -102.5 180.999h-91v63h81c-1.33301 10.667 -2 27.334 -2 50.001c0 23.333 1.33301 42.666 4 57.999h-83v62h94c19.333 72 53.666 130.333 102.999 175s106.666 67 171.999 67
c99.333 0 179.666 -45.667 240.999 -137l-60 -43c-26.667 37.333 -53.834 64.833 -81.501 82.5s-61.834 26.5 -102.501 26.5c-43.333 0 -82 -15.667 -116 -47s-59 -72.666 -75 -123.999h257v-62h-270c-2.66699 -14 -4 -33.333 -4 -58c0 -12 0.666992 -28.667 2 -50h272v-63
h-259c15.333 -54.667 41 -98 77 -130s78.333 -48 127 -48c37.333 0 69.833 9.66699 97.5 29s54.5 48 80.5 86l57 -40c-30.667 -46 -64.834 -81.833 -102.501 -107.5s-82.834 -38.5 -135.501 -38.5z" />
    <glyph glyph-name="yen" unicode="&#xa5;" horiz-adv-x="686" 
d="M305 0v116h-205v62h205v88h-205v62h181l-254 372h94l223 -342l225 342h90l-255 -372h182v-62h-205v-88h205v-62h-205v-116h-76z" />
    <glyph glyph-name="brokenbar" unicode="&#xa6;" horiz-adv-x="222" 
d="M73 -89v250h75v-250h-75zM73 411v250h75v-250h-75z" />
    <glyph glyph-name="section" unicode="&#xa7;" horiz-adv-x="632" 
d="M328 -10c-90.667 0 -167 31.665 -229 94.998l50 48c52.667 -51.333 113 -77 181 -77c34 0 59.667 6.16699 77 18.5s26 28.833 26 49.5c0 18.667 -12.167 35.167 -36.5 49.5s-66.5 28.5 -126.5 42.5c-76 18 -129.667 37.833 -161 59.5s-47 49.834 -47 84.501
c0 30 12 54.833 36 74.5s56 32.834 96 39.501c-49.333 25.333 -74 59.666 -74 102.999c0 40 16.667 72.167 50 96.5s78 36.5 134 36.5c90.667 0 167 -31.667 229 -95l-50 -48c-52.667 51.333 -113 77 -181 77c-34 0 -59.667 -6.16699 -77 -18.5s-26 -28.833 -26 -49.5
c0 -18.667 11.833 -35 35.5 -49s66.167 -28.333 127.5 -43c76.667 -18 130.5 -37.667 161.5 -59s46.5 -49.666 46.5 -84.999c0 -29.333 -12 -54 -36 -74s-56 -33.333 -96 -40c49.333 -24 74 -58.333 74 -103c0 -40 -16.667 -72.167 -50 -96.5s-78 -36.5 -134 -36.5z
M387 262.998c32 0 58.166 6.83301 78.499 20.5s30.5 30.5 30.5 50.5c0 17.333 -10.5 33 -31.5 47s-57.833 27.333 -110.5 40c-43.333 10.667 -79.666 16 -108.999 16c-32 0 -58.167 -6.83301 -78.5 -20.5s-30.5 -30.5 -30.5 -50.5c0 -17.333 10.5 -33 31.5 -47
s57.833 -27.333 110.5 -40c42.667 -10.667 79 -16 109 -16z" />
    <glyph glyph-name="dieresis" unicode="&#xa8;" 
d="M117 595v95h90v-95h-90zM293 595v95h90v-95h-90z" />
    <glyph glyph-name="copyright" unicode="&#xa9;" horiz-adv-x="830" 
d="M414 -12c-100.667 0 -186 35.333 -256 106s-105 156 -105 256c0 99.333 35.333 184.5 106 255.5s156.334 106.5 257.001 106.5s186 -35.333 256 -106s105 -156 105 -256c0 -99.333 -35.333 -184.5 -106 -255.5s-156.334 -106.5 -257.001 -106.5zM414 19
c93.333 0 171.666 32.5 234.999 97.5s95 143.5 95 235.5c0 91.333 -31.5 169 -94.5 233s-140.833 96 -233.5 96c-93.333 0 -171.666 -32.5 -234.999 -97.5s-95 -143.5 -95 -235.5c0 -91.333 31.5 -169 94.5 -233s140.833 -96 233.5 -96zM419 163
c-52.667 0 -96.834 18.668 -132.501 56.001s-53.5 83 -53.5 137c0 52.667 18 97.667 54 135s80.667 56 134 56c54 0 102 -20 144 -60l-37 -40c-34.667 33.333 -70.667 50 -108 50s-68.5 -13.833 -93.5 -41.5s-37.5 -61.167 -37.5 -100.5
c0 -38.667 12.833 -71.834 38.5 -99.501s56.834 -41.5 93.501 -41.5c38 0 74.667 16.667 110 50l36 -35c-42.667 -44 -92 -66 -148 -66z" />
    <glyph glyph-name="ordfeminine" unicode="&#xaa;" horiz-adv-x="390" 
d="M58 289v47h260v-47h-260zM168 408c-28.667 0 -53.667 8.00098 -75 24.001s-32 38.667 -32 68s11.333 52.166 34 68.499s52.334 24.5 89.001 24.5c26.667 0 53.334 -3.66699 80.001 -11v5c0 22.667 -6.83301 40.167 -20.5 52.5s-32.834 18.5 -57.501 18.5
s-53.334 -7.33301 -86.001 -22l-15 42c38 16.667 73.333 25 106 25c38.667 0 68.667 -9.83301 90 -29.5s32 -48.5 32 -86.5v-173h-49v38c-24 -29.333 -56 -44 -96 -44zM177 450.001c24 0 44.499 6.5 61.499 19.5s25.5 29.833 25.5 50.5v24c-24.667 7.33301 -50 11 -76 11
c-19.333 0 -36.666 -4.5 -51.999 -13.5s-23 -22.833 -23 -41.5c0 -15.333 6.16699 -27.5 18.5 -36.5s27.5 -13.5 45.5 -13.5z" />
    <glyph glyph-name="guillemotleft" unicode="&#xab;" horiz-adv-x="550" 
d="M210 41l-162 214v8l162 213l59 -33l-135 -183l135 -185zM433 41l-162 214v8l162 213l58 -33l-135 -183l135 -185z" />
    <glyph glyph-name="logicalnot" unicode="&#xac;" horiz-adv-x="640" 
d="M475 253v178h-386v75h461v-253h-75z" />
    <glyph glyph-name="uni00AD" unicode="&#xad;" horiz-adv-x="408" 
d="M65 260v81h278v-81h-278z" />
    <glyph glyph-name="registered" unicode="&#xae;" horiz-adv-x="830" 
d="M414 -12c-100.667 0 -186 35.333 -256 106s-105 156 -105 256c0 99.333 35.333 184.5 106 255.5s156.334 106.5 257.001 106.5s186 -35.333 256 -106s105 -156 105 -256c0 -99.333 -35.333 -184.5 -106 -255.5s-156.334 -106.5 -257.001 -106.5zM414 19
c93.333 0 171.666 32.5 234.999 97.5s95 143.5 95 235.5c0 91.333 -31.5 169 -94.5 233s-140.833 96 -233.5 96c-93.333 0 -171.666 -32.5 -234.999 -97.5s-95 -143.5 -95 -235.5c0 -91.333 31.5 -169 94.5 -233s140.833 -96 233.5 -96zM273 175l-0.000976562 371.003h166
c47.333 0 84 -13 110 -39c20 -18.667 30 -43.334 30 -74.001c0 -28.667 -8.66699 -52.334 -26 -71.001s-40.666 -31.334 -69.999 -38.001l115 -149h-68l-109 140h-93v-140h-55zM327.999 364.003h106c26.667 0 48 6 64 18s24 28.667 24 50c0 19.333 -7.5 34.833 -22.5 46.5
s-35.833 17.5 -62.5 17.5h-109v-132z" />
    <glyph glyph-name="macron" unicode="&#xaf;" 
d="M92 600v67h316v-67h-316z" />
    <glyph glyph-name="degree" unicode="&#xb0;" horiz-adv-x="458" 
d="M229 400c-41.333 0 -77.833 15.333 -109.5 46s-47.5 66.667 -47.5 108c0 40.667 15.833 76.167 47.5 106.5s68.167 45.5 109.5 45.5s77.833 -15.333 109.5 -46s47.5 -66.667 47.5 -108c0 -40 -15.833 -75.333 -47.5 -106s-68.167 -46 -109.5 -46zM229 452
c28 0 51.5 10.167 70.5 30.5s28.5 44.166 28.5 71.499c0 26.667 -9.5 50 -28.5 70s-42.5 30 -70.5 30s-51.5 -10.167 -70.5 -30.5s-28.5 -44.166 -28.5 -71.499c0 -26.667 9.5 -50 28.5 -70s42.5 -30 70.5 -30z" />
    <glyph glyph-name="plusminus" unicode="&#xb1;" horiz-adv-x="640" 
d="M72 14v70h496v-70h-496zM281 134v168h-211v72h211v168h77v-168h212v-72h-212v-168h-77z" />
    <glyph glyph-name="twosuperior" unicode="&#xb2;" 
d="M0 0v700h500v-700h-500zM81 49h339l-170 255zM49 96l171 254l-171 254v-508zM450 96v508l-171 -254zM250 395l170 255h-339z" />
    <glyph glyph-name="threesuperior" unicode="&#xb3;" 
d="M0 0v700h500v-700h-500zM81 49h339l-170 255zM49 96l171 254l-171 254v-508zM450 96v508l-171 -254zM250 395l170 255h-339z" />
    <glyph glyph-name="acute" unicode="&#xb4;" 
d="M181 595l95 145l80 -37l-113 -108h-62z" />
    <glyph glyph-name="mu" unicode="&#xb5;" horiz-adv-x="629" 
d="M86 -160v677h77v-302c0 -45.333 13.5 -83 40.5 -113s61.833 -45 104.5 -45c44.667 0 82.167 15.5 112.5 46.5s45.5 70.167 45.5 117.5v296h77v-517h-77v90c-40 -66.667 -98 -100 -174 -100c-54 0 -97 22.667 -129 68v-218h-77z" />
    <glyph glyph-name="paragraph" unicode="&#xb6;" horiz-adv-x="510" 
d="M338 0l-0.000976562 263.999h-11c-82 0 -149 19.333 -201 58s-78 92.334 -78 161.001c0 66.667 24.333 119.5 73 158.5s112.334 58.5 191.001 58.5h106v-700h-80z" />
    <glyph glyph-name="periodcentered" unicode="&#xb7;" horiz-adv-x="245" 
d="M77 248v105h92v-105h-92z" />
    <glyph glyph-name="cedilla" unicode="&#xb8;" 
d="M225 -155l-75 34l90 131h61z" />
    <glyph glyph-name="onesuperior" unicode="&#xb9;" 
d="M0 0v700h500v-700h-500zM81 49h339l-170 255zM49 96l171 254l-171 254v-508zM450 96v508l-171 -254zM250 395l170 255h-339z" />
    <glyph glyph-name="ordmasculine" unicode="&#xba;" horiz-adv-x="390" 
d="M51 289v47h288v-47h-288zM194 407c-41.333 0 -76 14.5 -104 43.5s-42 64.167 -42 105.5s14.167 76.5 42.5 105.5s63.5 43.5 105.5 43.5c41.333 0 76 -14.5 104 -43.5s42 -64.167 42 -105.5s-14.167 -76.5 -42.5 -105.5s-63.5 -43.5 -105.5 -43.5zM196 455
c27.333 0 49.5 9.66699 66.5 29s25.5 43.333 25.5 72c0 28 -9 51.833 -27 71.5s-40.333 29.5 -67 29.5c-27.333 0 -49.5 -9.66699 -66.5 -29s-25.5 -43.333 -25.5 -72c0 -28 9 -51.833 27 -71.5s40.333 -29.5 67 -29.5z" />
    <glyph glyph-name="guillemotright" unicode="&#xbb;" horiz-adv-x="550" 
d="M117 41l-58 33l135 184l-135 184l58 34l162 -213v-8zM340 41l-59 33l135 184l-135 184l59 34l162 -213v-8z" />
    <glyph glyph-name="onequarter" unicode="&#xbc;" 
d="M0 0v700h500v-700h-500zM81 49h339l-170 255zM49 96l171 254l-171 254v-508zM450 96v508l-171 -254zM250 395l170 255h-339z" />
    <glyph glyph-name="onehalf" unicode="&#xbd;" 
d="M0 0v700h500v-700h-500zM81 49h339l-170 255zM49 96l171 254l-171 254v-508zM450 96v508l-171 -254zM250 395l170 255h-339z" />
    <glyph glyph-name="threequarters" unicode="&#xbe;" 
d="M0 0v700h500v-700h-500zM81 49h339l-170 255zM49 96l171 254l-171 254v-508zM450 96v508l-171 -254zM250 395l170 255h-339z" />
    <glyph glyph-name="questiondown" unicode="&#xbf;" horiz-adv-x="537" 
d="M272 -9c-67.333 0 -121.499 18.6641 -162.499 55.9971s-61.5 85.333 -61.5 144c0 59.333 19.333 105.833 58 139.5s88.667 54.834 150 63.501l9 108h51l16 -162l-5 -5c-64 -1.33301 -113.167 -14.666 -147.5 -39.999s-51.5 -59.666 -51.5 -102.999
c0 -36.667 13.333 -67.5 40 -92.5s62 -37.5 106 -37.5c67.333 0 127.666 31.333 180.999 94l51 -49c-64 -77.333 -142 -116 -234 -116zM246.001 594.997v105h92v-105h-92z" />
    <glyph glyph-name="Agrave" unicode="&#xc0;" horiz-adv-x="790" 
d="M39 0l319 705h74l319 -705h-85l-82 185h-381l-83 -185h-81zM234 256h319l-159 357zM363 762l-113 108l80 37l95 -145h-62z" />
    <glyph glyph-name="Aacute" unicode="&#xc1;" horiz-adv-x="790" 
d="M39 0l319 705h74l319 -705h-85l-82 185h-381l-83 -185h-81zM234 256h319l-159 357zM365 762l95 145l80 -37l-113 -108h-62z" />
    <glyph glyph-name="Acircumflex" unicode="&#xc2;" horiz-adv-x="790" 
d="M39 0l319 705h74l319 -705h-85l-82 185h-381l-83 -185h-81zM234 256h319l-159 357zM255 759l106 131h68l106 -131h-66l-75 67l-75 -67h-64z" />
    <glyph glyph-name="Atilde" unicode="&#xc3;" horiz-adv-x="790" 
d="M39 0l319 705h74l319 -705h-85l-82 185h-381l-83 -185h-81zM234 256h319l-159 357zM278 753l-47 13c10 37.333 22.333 64.166 37 80.499s34 24.5 58 24.5c16 0 39.667 -6.66699 71 -20s52.333 -20 63 -20c12.667 0 22.5 3.5 29.5 10.5s14.5 19.833 22.5 38.5l47 -13
c-10 -37.333 -22.333 -64.166 -37 -80.499s-34 -24.5 -58 -24.5c-16 0 -39.667 6.66699 -71 20s-52.333 20 -63 20c-12.667 0 -22.5 -3.5 -29.5 -10.5s-14.5 -19.833 -22.5 -38.5z" />
    <glyph glyph-name="Adieresis" unicode="&#xc4;" horiz-adv-x="790" 
d="M39 0l319 705h74l319 -705h-85l-82 185h-381l-83 -185h-81zM234 256h319l-159 357zM262 762v95h90v-95h-90zM438 762v95h90v-95h-90z" />
    <glyph glyph-name="Aring" unicode="&#xc5;" horiz-adv-x="790" 
d="M39 0l307 680c-36.667 19.333 -55 48.666 -55 87.999c0 26.667 10.333 49.834 31 69.501s45 29.5 73 29.5s52.333 -9.83301 73 -29.5s31 -43.5 31 -71.5c0 -38 -18.333 -66.667 -55 -86l307 -680h-85l-82 185h-381l-83 -185h-81zM234 256h319l-159 357zM395 705
c16.667 0 31.167 6.16699 43.5 18.5s18.5 27.166 18.5 44.499c0 16.667 -6.16699 31 -18.5 43s-26.833 18 -43.5 18c-17.333 0 -32 -6.16699 -44 -18.5s-18 -27.166 -18 -44.499c0 -16.667 6.16699 -31 18.5 -43s26.833 -18 43.5 -18z" />
    <glyph glyph-name="AE" unicode="&#xc6;" horiz-adv-x="1045" 
d="M17 0l411 700h552v-72h-409v-239h364v-72h-364v-245h414v-72h-494v185h-282l-109 -185h-83zM249 256h242v374h-24z" />
    <glyph glyph-name="Ccedilla" unicode="&#xc7;" horiz-adv-x="738" 
d="M369 -155l-74.999 34.0029l77 112c-88.667 11.333 -161.334 50.666 -218.001 117.999s-85 147.666 -85 240.999c0 100.667 33.667 186.167 101 256.5s151.666 105.5 252.999 105.5c59.333 0 110 -9.33301 152 -28s82.333 -46.334 121 -83.001l-54 -58
c-67.333 64 -140.666 96 -219.999 96c-77.333 0 -141.833 -27.667 -193.5 -83s-77.5 -124 -77.5 -206c0 -81.333 26 -149.833 78 -205.5s116.333 -83.5 193 -83.5c45.333 0 85.333 8.33301 120 25s70 42 106 76l52 -51c-38 -38.667 -77.5 -68.167 -118.5 -88.5
s-89.5 -31.833 -145.5 -34.5z" />
    <glyph glyph-name="Egrave" unicode="&#xc8;" horiz-adv-x="670" 
d="M99 0v700h506v-72h-427v-239h382v-72h-382v-245h432v-72h-511zM340 762l-113 108l80 37l95 -145h-62z" />
    <glyph glyph-name="Eacute" unicode="&#xc9;" horiz-adv-x="670" 
d="M99 0v700h506v-72h-427v-239h382v-72h-382v-245h432v-72h-511zM297 762l95 145l80 -37l-113 -108h-62z" />
    <glyph glyph-name="Ecircumflex" unicode="&#xca;" horiz-adv-x="670" 
d="M99 0v700h506v-72h-427v-239h382v-72h-382v-245h432v-72h-511zM208 762l106 131h68l106 -131h-66l-75 67l-75 -67h-64z" />
    <glyph glyph-name="Edieresis" unicode="&#xcb;" horiz-adv-x="670" 
d="M99 0v700h506v-72h-427v-239h382v-72h-382v-245h432v-72h-511zM215 762v95h90v-95h-90zM391 762v95h90v-95h-90z" />
    <glyph glyph-name="Igrave" unicode="&#xcc;" horiz-adv-x="291" 
d="M106 0v700h79v-700h-79zM115 762l-113 108l80 37l95 -145h-62z" />
    <glyph glyph-name="Iacute" unicode="&#xcd;" horiz-adv-x="291" 
d="M106 0v700h79v-700h-79zM114 762l95 145l80 -37l-113 -108h-62z" />
    <glyph glyph-name="Icircumflex" unicode="&#xce;" horiz-adv-x="291" 
d="M106 0v700h79v-700h-79zM6 762l106 131h68l106 -131h-66l-75 67l-75 -67h-64z" />
    <glyph glyph-name="Idieresis" unicode="&#xcf;" horiz-adv-x="291" 
d="M106 0v700h79v-700h-79zM13 762v95h90v-95h-90zM189 762v95h90v-95h-90z" />
    <glyph glyph-name="Eth" unicode="&#xd0;" horiz-adv-x="812" 
d="M129 0l0.00195312 316h-75v72h75v312h243c109.333 0 198.666 -33.167 267.999 -99.5s104 -149.833 104 -250.5c0 -100 -34.833 -183.333 -104.5 -250s-158.834 -100 -267.501 -100h-243zM208.002 73h164c87.333 0 157.5 26.167 210.5 78.5s79.5 118.5 79.5 198.5
c0 79.333 -26.667 145.333 -80 198s-123.333 79 -210 79h-164v-239h210v-72h-210v-243z" />
    <glyph glyph-name="Ntilde" unicode="&#xd1;" horiz-adv-x="790" 
d="M99 0v700h74l441 -561v561h77v-700h-63l-452 574v-574h-77zM278 753l-47 13c10 37.333 22.333 64.166 37 80.499s34 24.5 58 24.5c16 0 39.667 -6.66699 71 -20s52.333 -20 63 -20c12.667 0 22.5 3.5 29.5 10.5s14.5 19.833 22.5 38.5l47 -13
c-10 -37.333 -22.333 -64.166 -37 -80.499s-34 -24.5 -58 -24.5c-16 0 -39.667 6.66699 -71 20s-52.333 20 -63 20c-12.667 0 -22.5 -3.5 -29.5 -10.5s-14.5 -19.833 -22.5 -38.5z" />
    <glyph glyph-name="Ograve" unicode="&#xd2;" horiz-adv-x="850" 
d="M424 -12c-104 0 -189.333 35.333 -256 106s-100 156 -100 256c0 99.333 33.667 184.5 101 255.5s153 106.5 257 106.5s189.333 -35.333 256 -106s100 -156 100 -256c0 -99.333 -33.667 -184.5 -101 -255.5s-153 -106.5 -257 -106.5zM426 61
c79.333 0 144.833 27.833 196.5 83.5s77.5 124.167 77.5 205.5c0 80.667 -26.167 149 -78.5 205s-118.166 84 -197.499 84s-144.833 -27.833 -196.5 -83.5s-77.5 -124.167 -77.5 -205.5c0 -80.667 26.167 -149 78.5 -205s118.166 -84 197.499 -84zM389 762l-113 108l80 37
l95 -145h-62z" />
    <glyph glyph-name="Oacute" unicode="&#xd3;" horiz-adv-x="850" 
d="M424 -12c-104 0 -189.333 35.333 -256 106s-100 156 -100 256c0 99.333 33.667 184.5 101 255.5s153 106.5 257 106.5s189.333 -35.333 256 -106s100 -156 100 -256c0 -99.333 -33.667 -184.5 -101 -255.5s-153 -106.5 -257 -106.5zM426 61
c79.333 0 144.833 27.833 196.5 83.5s77.5 124.167 77.5 205.5c0 80.667 -26.167 149 -78.5 205s-118.166 84 -197.499 84s-144.833 -27.833 -196.5 -83.5s-77.5 -124.167 -77.5 -205.5c0 -80.667 26.167 -149 78.5 -205s118.166 -84 197.499 -84zM399 762l95 145l80 -37
l-113 -108h-62z" />
    <glyph glyph-name="Ocircumflex" unicode="&#xd4;" horiz-adv-x="850" 
d="M424 -12c-104 0 -189.333 35.333 -256 106s-100 156 -100 256c0 99.333 33.667 184.5 101 255.5s153 106.5 257 106.5s189.333 -35.333 256 -106s100 -156 100 -256c0 -99.333 -33.667 -184.5 -101 -255.5s-153 -106.5 -257 -106.5zM426 61
c79.333 0 144.833 27.833 196.5 83.5s77.5 124.167 77.5 205.5c0 80.667 -26.167 149 -78.5 205s-118.166 84 -197.499 84s-144.833 -27.833 -196.5 -83.5s-77.5 -124.167 -77.5 -205.5c0 -80.667 26.167 -149 78.5 -205s118.166 -84 197.499 -84zM285 762l106 131h68
l106 -131h-66l-75 67l-75 -67h-64z" />
    <glyph glyph-name="Otilde" unicode="&#xd5;" horiz-adv-x="850" 
d="M424 -12c-104 0 -189.333 35.333 -256 106s-100 156 -100 256c0 99.333 33.667 184.5 101 255.5s153 106.5 257 106.5s189.333 -35.333 256 -106s100 -156 100 -256c0 -99.333 -33.667 -184.5 -101 -255.5s-153 -106.5 -257 -106.5zM426 61
c79.333 0 144.833 27.833 196.5 83.5s77.5 124.167 77.5 205.5c0 80.667 -26.167 149 -78.5 205s-118.166 84 -197.499 84s-144.833 -27.833 -196.5 -83.5s-77.5 -124.167 -77.5 -205.5c0 -80.667 26.167 -149 78.5 -205s118.166 -84 197.499 -84zM308 753l-47 13
c10 37.333 22.333 64.166 37 80.499s34 24.5 58 24.5c16 0 39.667 -6.66699 71 -20s52.333 -20 63 -20c12.667 0 22.5 3.5 29.5 10.5s14.5 19.833 22.5 38.5l47 -13c-10 -37.333 -22.333 -64.166 -37 -80.499s-34 -24.5 -58 -24.5c-16 0 -39.667 6.66699 -71 20
s-52.333 20 -63 20c-12.667 0 -22.5 -3.5 -29.5 -10.5s-14.5 -19.833 -22.5 -38.5z" />
    <glyph glyph-name="Odieresis" unicode="&#xd6;" horiz-adv-x="850" 
d="M424 -12c-104 0 -189.333 35.333 -256 106s-100 156 -100 256c0 99.333 33.667 184.5 101 255.5s153 106.5 257 106.5s189.333 -35.333 256 -106s100 -156 100 -256c0 -99.333 -33.667 -184.5 -101 -255.5s-153 -106.5 -257 -106.5zM426 61
c79.333 0 144.833 27.833 196.5 83.5s77.5 124.167 77.5 205.5c0 80.667 -26.167 149 -78.5 205s-118.166 84 -197.499 84s-144.833 -27.833 -196.5 -83.5s-77.5 -124.167 -77.5 -205.5c0 -80.667 26.167 -149 78.5 -205s118.166 -84 197.499 -84zM292 762v95h90v-95h-90z
M468 762v95h90v-95h-90z" />
    <glyph glyph-name="multiply" unicode="&#xd7;" horiz-adv-x="640" 
d="M130 94l-51 52l189 189l-189 189l51 52l189 -191l189 191l51 -52l-189 -189l189 -189l-51 -52l-189 190z" />
    <glyph glyph-name="Oslash" unicode="&#xd8;" horiz-adv-x="850" 
d="M424 -12c-84.667 0 -157.667 24.333 -219 73l-62 -66h-83l99 108c-60.667 68 -91 150.333 -91 247c0 99.333 33.667 184.5 101 255.5s153 106.5 257 106.5c85.333 0 158.333 -24.667 219 -74l62 67h83l-99 -108c60.667 -68 91 -150.333 91 -247
c0 -99.333 -33.667 -184.5 -101 -255.5s-153 -106.5 -257 -106.5zM426 60c79.333 0 144.833 28.001 196.5 84.001s77.5 124.667 77.5 206c0 71.333 -21 133.666 -63 186.999l-381 -416c48 -40.667 104.667 -61 170 -61zM213 163.001l381 415.999
c-48 40.667 -104.667 61 -170 61c-79.333 0 -144.833 -28 -196.5 -84s-77.5 -124.667 -77.5 -206c0 -71.333 21 -133.666 63 -186.999z" />
    <glyph glyph-name="Ugrave" unicode="&#xd9;" horiz-adv-x="759" 
d="M379 -11c-88.667 0 -159.333 26.501 -212 79.501s-79 127.833 -79 224.5v407h79v-402c0 -75.333 18.833 -133.5 56.5 -174.5s90.167 -61.5 157.5 -61.5c66 0 117.667 19.667 155 59s56 96.666 56 171.999v407h79v-401c0 -100 -26.333 -176.667 -79 -230
s-123.667 -80 -213 -80zM354.001 757.001l-113 108l80 37l95 -145h-62z" />
    <glyph glyph-name="Uacute" unicode="&#xda;" horiz-adv-x="759" 
d="M379 -11c-88.667 0 -159.333 26.501 -212 79.501s-79 127.833 -79 224.5v407h79v-402c0 -75.333 18.833 -133.5 56.5 -174.5s90.167 -61.5 157.5 -61.5c66 0 117.667 19.667 155 59s56 96.666 56 171.999v407h79v-401c0 -100 -26.333 -176.667 -79 -230
s-123.667 -80 -213 -80zM343.001 757.001l95 145l80 -37l-113 -108h-62z" />
    <glyph glyph-name="Ucircumflex" unicode="&#xdb;" horiz-adv-x="759" 
d="M379 -11c-88.667 0 -159.333 26.501 -212 79.501s-79 127.833 -79 224.5v407h79v-402c0 -75.333 18.833 -133.5 56.5 -174.5s90.167 -61.5 157.5 -61.5c66 0 117.667 19.667 155 59s56 96.666 56 171.999v407h79v-401c0 -100 -26.333 -176.667 -79 -230
s-123.667 -80 -213 -80zM239.001 759.001l106 131h68l106 -131h-66l-75 67l-75 -67h-64z" />
    <glyph glyph-name="Udieresis" unicode="&#xdc;" horiz-adv-x="759" 
d="M379 -11c-88.667 0 -159.333 26.501 -212 79.501s-79 127.833 -79 224.5v407h79v-402c0 -75.333 18.833 -133.5 56.5 -174.5s90.167 -61.5 157.5 -61.5c66 0 117.667 19.667 155 59s56 96.666 56 171.999v407h79v-401c0 -100 -26.333 -176.667 -79 -230
s-123.667 -80 -213 -80zM246.001 759.001v95h90v-95h-90zM422.001 759.001v95h90v-95h-90z" />
    <glyph glyph-name="Yacute" unicode="&#xdd;" horiz-adv-x="716" 
d="M318 0v277l-291 423h96l236 -350l238 350h92l-291 -422v-278h-80zM329 757l95 145l80 -37l-113 -108h-62z" />
    <glyph glyph-name="Thorn" unicode="&#xde;" horiz-adv-x="673" 
d="M99 0v700h79v-120h183c79.333 0 142.833 -20 190.5 -60s71.5 -94.667 71.5 -164c0 -72.667 -26.167 -129.167 -78.5 -169.5s-117.833 -60.5 -196.5 -60.5h-170v-126h-79zM178 198h173c58 0 104.5 14.333 139.5 43s52.5 66.667 52.5 114
c0 48.667 -16.833 86.167 -50.5 112.5s-79.5 39.5 -137.5 39.5h-177v-309z" />
    <glyph glyph-name="germandbls" unicode="&#xdf;" horiz-adv-x="620" 
d="M292 -2v61.9971c60 1.33301 106.833 13.5 140.5 36.5s50.5 55.5 50.5 97.5c0 38.667 -16.833 69.667 -50.5 93s-80.5 38 -140.5 44v57c98.667 36.667 148 91.334 148 164.001c0 34.667 -12.167 62.834 -36.5 84.501s-55.833 32.5 -94.5 32.5
c-43.333 0 -78.5 -15.167 -105.5 -45.5s-40.5 -70.833 -40.5 -121.5v-502h-77v501c0 70.667 20.5 127.667 61.5 171s96.167 65 165.5 65c62 0 111.833 -17.167 149.5 -51.5s56.5 -77.833 56.5 -130.5c0 -43.333 -13.167 -80.333 -39.5 -111s-59.5 -54.667 -99.5 -72
c52.667 -12 96.167 -32.667 130.5 -62s51.5 -68.666 51.5 -117.999c0 -60.667 -23.5 -108.167 -70.5 -142.5s-111.167 -51.5 -192.5 -51.5h-7z" />
    <glyph glyph-name="agrave" unicode="&#xe0;" horiz-adv-x="579" 
d="M240 -11c-52.667 0 -97.999 14.333 -135.999 43s-57 68.667 -57 120c0 54 20 95.667 60 125s93.667 44 161 44c53.333 0 106 -7.33301 158 -22v16c0 45.333 -13.333 80 -40 104s-64.334 36 -113.001 36c-50.667 0 -103 -12.333 -157 -37l-23 63
c64 29.333 126.667 44 188 44c73.333 0 129 -19 167 -57c36 -36 54 -86.667 54 -152v-316h-76v77c-46 -58.667 -108 -88 -186 -88zM255.001 51c48 0 88.667 13 122 39s50 59.333 50 100v48c-50.667 14.667 -101 22 -151 22c-47.333 0 -84.333 -9.5 -111 -28.5
s-40 -44.833 -40 -77.5c0 -31.333 12.5 -56.333 37.5 -75s55.833 -28 92.5 -28zM261.001 595l-113 108l80 37l95 -145h-62z" />
    <glyph glyph-name="aacute" unicode="&#xe1;" horiz-adv-x="579" 
d="M240 -11c-52.667 0 -97.999 14.333 -135.999 43s-57 68.667 -57 120c0 54 20 95.667 60 125s93.667 44 161 44c53.333 0 106 -7.33301 158 -22v16c0 45.333 -13.333 80 -40 104s-64.334 36 -113.001 36c-50.667 0 -103 -12.333 -157 -37l-23 63
c64 29.333 126.667 44 188 44c73.333 0 129 -19 167 -57c36 -36 54 -86.667 54 -152v-316h-76v77c-46 -58.667 -108 -88 -186 -88zM255.001 51c48 0 88.667 13 122 39s50 59.333 50 100v48c-50.667 14.667 -101 22 -151 22c-47.333 0 -84.333 -9.5 -111 -28.5
s-40 -44.833 -40 -77.5c0 -31.333 12.5 -56.333 37.5 -75s55.833 -28 92.5 -28zM248.001 595l95 145l80 -37l-113 -108h-62z" />
    <glyph glyph-name="acircumflex" unicode="&#xe2;" horiz-adv-x="579" 
d="M240 -11c-52.667 0 -97.999 14.333 -135.999 43s-57 68.667 -57 120c0 54 20 95.667 60 125s93.667 44 161 44c53.333 0 106 -7.33301 158 -22v16c0 45.333 -13.333 80 -40 104s-64.334 36 -113.001 36c-50.667 0 -103 -12.333 -157 -37l-23 63
c64 29.333 126.667 44 188 44c73.333 0 129 -19 167 -57c36 -36 54 -86.667 54 -152v-316h-76v77c-46 -58.667 -108 -88 -186 -88zM255.001 51c48 0 88.667 13 122 39s50 59.333 50 100v48c-50.667 14.667 -101 22 -151 22c-47.333 0 -84.333 -9.5 -111 -28.5
s-40 -44.833 -40 -77.5c0 -31.333 12.5 -56.333 37.5 -75s55.833 -28 92.5 -28zM151.001 595l106 131h68l106 -131h-66l-75 67l-75 -67h-64z" />
    <glyph glyph-name="atilde" unicode="&#xe3;" horiz-adv-x="579" 
d="M240 -11c-52.667 0 -97.999 14.333 -135.999 43s-57 68.667 -57 120c0 54 20 95.667 60 125s93.667 44 161 44c53.333 0 106 -7.33301 158 -22v16c0 45.333 -13.333 80 -40 104s-64.334 36 -113.001 36c-50.667 0 -103 -12.333 -157 -37l-23 63
c64 29.333 126.667 44 188 44c73.333 0 129 -19 167 -57c36 -36 54 -86.667 54 -152v-316h-76v77c-46 -58.667 -108 -88 -186 -88zM255.001 51c48 0 88.667 13 122 39s50 59.333 50 100v48c-50.667 14.667 -101 22 -151 22c-47.333 0 -84.333 -9.5 -111 -28.5
s-40 -44.833 -40 -77.5c0 -31.333 12.5 -56.333 37.5 -75s55.833 -28 92.5 -28zM175.001 586l-47 13c10 37.333 22.333 64.166 37 80.499s34 24.5 58 24.5c16 0 39.667 -6.66699 71 -20s52.333 -20 63 -20c12.667 0 22.5 3.5 29.5 10.5s14.5 19.833 22.5 38.5l47 -13
c-10 -37.333 -22.333 -64.166 -37 -80.499s-34 -24.5 -58 -24.5c-16 0 -39.667 6.66699 -71 20s-52.333 20 -63 20c-12.667 0 -22.5 -3.5 -29.5 -10.5s-14.5 -19.833 -22.5 -38.5z" />
    <glyph glyph-name="adieresis" unicode="&#xe4;" horiz-adv-x="579" 
d="M240 -11c-52.667 0 -97.999 14.333 -135.999 43s-57 68.667 -57 120c0 54 20 95.667 60 125s93.667 44 161 44c53.333 0 106 -7.33301 158 -22v16c0 45.333 -13.333 80 -40 104s-64.334 36 -113.001 36c-50.667 0 -103 -12.333 -157 -37l-23 63
c64 29.333 126.667 44 188 44c73.333 0 129 -19 167 -57c36 -36 54 -86.667 54 -152v-316h-76v77c-46 -58.667 -108 -88 -186 -88zM255.001 51c48 0 88.667 13 122 39s50 59.333 50 100v48c-50.667 14.667 -101 22 -151 22c-47.333 0 -84.333 -9.5 -111 -28.5
s-40 -44.833 -40 -77.5c0 -31.333 12.5 -56.333 37.5 -75s55.833 -28 92.5 -28zM158.001 595v95h90v-95h-90zM334.001 595v95h90v-95h-90z" />
    <glyph glyph-name="aring" unicode="&#xe5;" horiz-adv-x="579" 
d="M240 -11c-52.667 0 -97.999 14.333 -135.999 43s-57 68.667 -57 120c0 54 20 95.667 60 125s93.667 44 161 44c53.333 0 106 -7.33301 158 -22v16c0 45.333 -13.333 80 -40 104s-64.334 36 -113.001 36c-50.667 0 -103 -12.333 -157 -37l-23 63
c64 29.333 126.667 44 188 44c73.333 0 129 -19 167 -57c36 -36 54 -86.667 54 -152v-316h-76v77c-46 -58.667 -108 -88 -186 -88zM255.001 51c48 0 88.667 13 122 39s50 59.333 50 100v48c-50.667 14.667 -101 22 -151 22c-47.333 0 -84.333 -9.5 -111 -28.5
s-40 -44.833 -40 -77.5c0 -31.333 12.5 -56.333 37.5 -75s55.833 -28 92.5 -28zM291.001 593c-28 0 -52.333 9.83301 -73 29.5s-31 43.5 -31 71.5c0 26.667 10.333 49.834 31 69.501s45 29.5 73 29.5s52.333 -9.83301 73 -29.5s31 -43.5 31 -71.5
c0 -26.667 -10.333 -49.834 -31 -69.501s-45 -29.5 -73 -29.5zM291.001 631c16.667 0 31.167 6.16699 43.5 18.5s18.5 27.166 18.5 44.499c0 16.667 -6.16699 31 -18.5 43s-26.833 18 -43.5 18c-17.333 0 -32 -6.16699 -44 -18.5s-18 -27.166 -18 -44.499
c0 -16.667 6.16699 -31 18.5 -43s26.833 -18 43.5 -18z" />
    <glyph glyph-name="ae" unicode="&#xe6;" horiz-adv-x="953" 
d="M236 -11c-50 0 -93.999 14.5 -131.999 43.5s-57 68.833 -57 119.5c0 54 19.833 95.667 59.5 125s92.167 44 157.5 44c44.667 0 95.667 -7.33301 153 -22v16c0 46 -13 80.833 -39 104.5s-62.333 35.5 -109 35.5c-48 0 -99 -12.333 -153 -37l-23 63
c64 29.333 125.333 44 184 44c47.333 0 87.5 -9.5 120.5 -28.5s55.833 -46.833 68.5 -83.5c20.667 35.333 48.5 63.333 83.5 84s73.167 31 114.5 31c74 0 132.5 -26 175.5 -78s64.5 -117.333 64.5 -196c0 -10 -0.333008 -19 -1 -27h-410
c5.33301 -52.667 25.166 -94.5 59.499 -125.5s75.166 -46.5 122.499 -46.5c62 0 116.333 24.333 163 73l48 -43c-58 -64.667 -129 -97 -213 -97c-41.333 0 -80 9.16699 -116 27.5s-65.667 43.833 -89 76.5c-28.667 -30 -64.167 -54.667 -106.5 -74s-84.166 -29 -125.499 -29
zM251.001 51c41.333 0 75.832 7.66699 103.499 23s55.167 38.333 82.5 69c-12 30 -19 62.333 -21 97c-50.667 13.333 -98.667 20 -144 20s-81.166 -9.66699 -107.499 -29s-39.5 -45 -39.5 -77c0 -31.333 12.5 -56.333 37.5 -75s54.5 -28 88.5 -28zM493 289
l332.999 0.000976562c-4.66699 50 -21.167 91.5 -49.5 124.5s-66.833 49.5 -115.5 49.5c-44 0 -81.667 -16.333 -113 -49s-49.666 -74.334 -54.999 -125.001z" />
    <glyph glyph-name="ccedilla" unicode="&#xe7;" horiz-adv-x="571" 
d="M268 -155l-75.001 34l78 114c-63.333 11.333 -115.333 41.833 -156 91.5s-61 107.5 -61 173.5c0 74 25.5 137.5 76.5 190.5s113.833 79.5 188.5 79.5c80 0 149 -30.667 207 -92l-51 -54c-49.333 52 -101.666 78 -156.999 78c-52 0 -95.833 -19.5 -131.5 -58.5
s-53.5 -86.833 -53.5 -143.5c0 -56 18.167 -103.5 54.5 -142.5s81.5 -58.5 135.5 -58.5c57.333 0 110 25.667 158 77l49 -46c-56.667 -62.667 -122 -96 -196 -100z" />
    <glyph glyph-name="egrave" unicode="&#xe8;" horiz-adv-x="592" 
d="M132 227c5.33301 -52.667 25.1689 -94.498 59.502 -125.498s75.166 -46.5 122.499 -46.5c62 0 116.333 24.333 163 73l48 -43c-58 -64.667 -129 -97 -213 -97c-72.667 0 -133.834 25.167 -183.501 75.5s-74.5 115.166 -74.5 194.499c0 75.333 23.667 139.166 71 191.499
s106.333 78.5 177 78.5c74 0 132.667 -26 176 -78s65 -117.333 65 -196c0 -10 -0.333008 -19 -1 -27h-410zM132.003 289.002l332.999 0.000976562c-4.66699 50 -21.167 91.5 -49.5 124.5s-66.833 49.5 -115.5 49.5c-44 0 -81.667 -16.333 -113 -49
s-49.666 -74.334 -54.999 -125.001zM276.002 595.003l-113 108l80 37l95 -145h-62z" />
    <glyph glyph-name="eacute" unicode="&#xe9;" horiz-adv-x="592" 
d="M132 227c5.33301 -52.667 25.1689 -94.498 59.502 -125.498s75.166 -46.5 122.499 -46.5c62 0 116.333 24.333 163 73l48 -43c-58 -64.667 -129 -97 -213 -97c-72.667 0 -133.834 25.167 -183.501 75.5s-74.5 115.166 -74.5 194.499c0 75.333 23.667 139.166 71 191.499
s106.333 78.5 177 78.5c74 0 132.667 -26 176 -78s65 -117.333 65 -196c0 -10 -0.333008 -19 -1 -27h-410zM132.003 289.002l332.999 0.000976562c-4.66699 50 -21.167 91.5 -49.5 124.5s-66.833 49.5 -115.5 49.5c-44 0 -81.667 -16.333 -113 -49
s-49.666 -74.334 -54.999 -125.001zM254.002 595.003l95 145l80 -37l-113 -108h-62z" />
    <glyph glyph-name="ecircumflex" unicode="&#xea;" horiz-adv-x="592" 
d="M132 227c5.33301 -52.667 25.1689 -94.498 59.502 -125.498s75.166 -46.5 122.499 -46.5c62 0 116.333 24.333 163 73l48 -43c-58 -64.667 -129 -97 -213 -97c-72.667 0 -133.834 25.167 -183.501 75.5s-74.5 115.166 -74.5 194.499c0 75.333 23.667 139.166 71 191.499
s106.333 78.5 177 78.5c74 0 132.667 -26 176 -78s65 -117.333 65 -196c0 -10 -0.333008 -19 -1 -27h-410zM132.003 289.002l332.999 0.000976562c-4.66699 50 -21.167 91.5 -49.5 124.5s-66.833 49.5 -115.5 49.5c-44 0 -81.667 -16.333 -113 -49
s-49.666 -74.334 -54.999 -125.001zM159.002 595.003l106 131h68l106 -131h-66l-75 67l-75 -67h-64z" />
    <glyph glyph-name="edieresis" unicode="&#xeb;" horiz-adv-x="592" 
d="M132 227c5.33301 -52.667 25.1689 -94.498 59.502 -125.498s75.166 -46.5 122.499 -46.5c62 0 116.333 24.333 163 73l48 -43c-58 -64.667 -129 -97 -213 -97c-72.667 0 -133.834 25.167 -183.501 75.5s-74.5 115.166 -74.5 194.499c0 75.333 23.667 139.166 71 191.499
s106.333 78.5 177 78.5c74 0 132.667 -26 176 -78s65 -117.333 65 -196c0 -10 -0.333008 -19 -1 -27h-410zM132.003 289.002l332.999 0.000976562c-4.66699 50 -21.167 91.5 -49.5 124.5s-66.833 49.5 -115.5 49.5c-44 0 -81.667 -16.333 -113 -49
s-49.666 -74.334 -54.999 -125.001zM166.002 595.003v95h90v-95h-90zM342.002 595.003v95h90v-95h-90z" />
    <glyph glyph-name="igrave" unicode="&#xec;" horiz-adv-x="263" 
d="M93 0v517h77v-517h-77zM102 595l-113 108l80 37l95 -145h-62z" />
    <glyph glyph-name="iacute" unicode="&#xed;" horiz-adv-x="263" 
d="M93 0v517h77v-517h-77zM100 595l95 145l80 -37l-113 -108h-62z" />
    <glyph glyph-name="icircumflex" unicode="&#xee;" horiz-adv-x="263" 
d="M93 0v517h77v-517h-77zM-9 595l106 131h68l106 -131h-66l-75 67l-75 -67h-64z" />
    <glyph glyph-name="idieresis" unicode="&#xef;" horiz-adv-x="263" 
d="M93 0v517h77v-517h-77zM-2 595v95h90v-95h-90zM174 595v95h90v-95h-90z" />
    <glyph glyph-name="eth" unicode="&#xf0;" horiz-adv-x="633" 
d="M312 -12c-73.333 0 -134.666 25.168 -183.999 75.501s-74 111.5 -74 183.5c0 70 23.167 127.333 69.5 172s102.166 67 167.499 67c56 0 110 -18.333 162 -55l-131 184l-128 -63l-36 47l131 61l-50 70h92l26 -39l99 48l35 -47l-102 -47l101 -149
c58.667 -84.667 88 -166.334 88 -245.001c0 -72.667 -24.5 -134.667 -73.5 -186s-113.167 -77 -192.5 -77zM317 56.001c53.333 0 96.999 18.499 130.999 55.499s51 81.5 51 133.5c0 49.333 -18.167 91.666 -54.5 126.999s-81.5 53 -135.5 53
c-53.333 0 -96.166 -17.167 -128.499 -51.5s-48.5 -78.166 -48.5 -131.499c0 -49.333 17.667 -92.666 53 -129.999s79.333 -56 132 -56z" />
    <glyph glyph-name="ntilde" unicode="&#xf1;" horiz-adv-x="616" 
d="M86 0l0.000976562 517h77v-90c40.667 67.333 99.667 101 177 101c61.333 0 109.666 -18.833 144.999 -56.5s53 -87.834 53 -150.501v-321h-77v302c0 48.667 -12.5 86.834 -37.5 114.501s-60.167 41.5 -105.5 41.5c-44.667 0 -81.667 -15 -111 -45s-44 -69 -44 -117v-296
h-77zM195.001 586l-47 13c10 37.333 22.333 64.166 37 80.499s34 24.5 58 24.5c16 0 39.667 -6.66699 71 -20s52.333 -20 63 -20c12.667 0 22.5 3.5 29.5 10.5s14.5 19.833 22.5 38.5l47 -13c-10 -37.333 -22.333 -64.166 -37 -80.499s-34 -24.5 -58 -24.5
c-16 0 -39.667 6.66699 -71 20s-52.333 20 -63 20c-12.667 0 -22.5 -3.5 -29.5 -10.5s-14.5 -19.833 -22.5 -38.5z" />
    <glyph glyph-name="ograve" unicode="&#xf2;" horiz-adv-x="646" 
d="M322 -12c-76.667 0 -140.501 26.333 -191.501 79s-76.5 116.334 -76.5 191.001c0 74 25.833 137.5 77.5 190.5s115.834 79.5 192.501 79.5s140.667 -26.333 192 -79s77 -116.334 77 -191.001c0 -74 -26 -137.5 -78 -190.5s-116.333 -79.5 -193 -79.5zM323.999 57
c55.333 0 100.832 19.332 136.499 57.999s53.5 86.334 53.5 143.001c0 56 -18.5 103.667 -55.5 143s-82.5 59 -136.5 59c-55.333 0 -100.666 -19.5 -135.999 -58.5s-53 -86.833 -53 -143.5c0 -56 18.333 -103.5 55 -142.5s82 -58.5 136 -58.5zM291.998 594.999l-113 108
l80 37l95 -145h-62z" />
    <glyph glyph-name="oacute" unicode="&#xf3;" horiz-adv-x="646" 
d="M322 -12c-76.667 0 -140.501 26.333 -191.501 79s-76.5 116.334 -76.5 191.001c0 74 25.833 137.5 77.5 190.5s115.834 79.5 192.501 79.5s140.667 -26.333 192 -79s77 -116.334 77 -191.001c0 -74 -26 -137.5 -78 -190.5s-116.333 -79.5 -193 -79.5zM323.999 57
c55.333 0 100.832 19.332 136.499 57.999s53.5 86.334 53.5 143.001c0 56 -18.5 103.667 -55.5 143s-82.5 59 -136.5 59c-55.333 0 -100.666 -19.5 -135.999 -58.5s-53 -86.833 -53 -143.5c0 -56 18.333 -103.5 55 -142.5s82 -58.5 136 -58.5zM292.998 594.999l95 145
l80 -37l-113 -108h-62z" />
    <glyph glyph-name="ocircumflex" unicode="&#xf4;" horiz-adv-x="646" 
d="M322 -12c-76.667 0 -140.501 26.333 -191.501 79s-76.5 116.334 -76.5 191.001c0 74 25.833 137.5 77.5 190.5s115.834 79.5 192.501 79.5s140.667 -26.333 192 -79s77 -116.334 77 -191.001c0 -74 -26 -137.5 -78 -190.5s-116.333 -79.5 -193 -79.5zM323.999 57
c55.333 0 100.832 19.332 136.499 57.999s53.5 86.334 53.5 143.001c0 56 -18.5 103.667 -55.5 143s-82.5 59 -136.5 59c-55.333 0 -100.666 -19.5 -135.999 -58.5s-53 -86.833 -53 -143.5c0 -56 18.333 -103.5 55 -142.5s82 -58.5 136 -58.5zM182.998 594.999l106 131h68
l106 -131h-66l-75 67l-75 -67h-64z" />
    <glyph glyph-name="otilde" unicode="&#xf5;" horiz-adv-x="646" 
d="M322 -12c-76.667 0 -140.501 26.333 -191.501 79s-76.5 116.334 -76.5 191.001c0 74 25.833 137.5 77.5 190.5s115.834 79.5 192.501 79.5s140.667 -26.333 192 -79s77 -116.334 77 -191.001c0 -74 -26 -137.5 -78 -190.5s-116.333 -79.5 -193 -79.5zM323.999 57
c55.333 0 100.832 19.332 136.499 57.999s53.5 86.334 53.5 143.001c0 56 -18.5 103.667 -55.5 143s-82.5 59 -136.5 59c-55.333 0 -100.666 -19.5 -135.999 -58.5s-53 -86.833 -53 -143.5c0 -56 18.333 -103.5 55 -142.5s82 -58.5 136 -58.5zM205.998 585.999l-47 13
c10 37.333 22.333 64.166 37 80.499s34 24.5 58 24.5c16 0 39.667 -6.66699 71 -20s52.333 -20 63 -20c12.667 0 22.5 3.5 29.5 10.5s14.5 19.833 22.5 38.5l47 -13c-10 -37.333 -22.333 -64.166 -37 -80.499s-34 -24.5 -58 -24.5c-16 0 -39.667 6.66699 -71 20
s-52.333 20 -63 20c-12.667 0 -22.5 -3.5 -29.5 -10.5s-14.5 -19.833 -22.5 -38.5z" />
    <glyph glyph-name="odieresis" unicode="&#xf6;" horiz-adv-x="646" 
d="M322 -12c-76.667 0 -140.501 26.333 -191.501 79s-76.5 116.334 -76.5 191.001c0 74 25.833 137.5 77.5 190.5s115.834 79.5 192.501 79.5s140.667 -26.333 192 -79s77 -116.334 77 -191.001c0 -74 -26 -137.5 -78 -190.5s-116.333 -79.5 -193 -79.5zM323.999 57
c55.333 0 100.832 19.332 136.499 57.999s53.5 86.334 53.5 143.001c0 56 -18.5 103.667 -55.5 143s-82.5 59 -136.5 59c-55.333 0 -100.666 -19.5 -135.999 -58.5s-53 -86.833 -53 -143.5c0 -56 18.333 -103.5 55 -142.5s82 -58.5 136 -58.5zM189.998 594.999v95h90v-95
h-90zM365.998 594.999v95h90v-95h-90z" />
    <glyph glyph-name="divide" unicode="&#xf7;" horiz-adv-x="640" 
d="M275 110v103h89v-103h-89zM89 317v74h462v-74h-462zM275 494v103h89v-103h-89z" />
    <glyph glyph-name="oslash" unicode="&#xf8;" horiz-adv-x="646" 
d="M322 -12c-60 0 -113.668 17.668 -161.001 53.001l-45 -46h-77l79 85c-42.667 50 -64 109.333 -64 178c0 74 25.833 137.5 77.5 190.5s115.834 79.5 192.501 79.5c62 0 115.667 -18 161 -54l45 49h78c-46 -48.667 -72.667 -77.334 -80 -86.001
c43.333 -50 65 -109.667 65 -179c0 -74 -26 -137.5 -78 -190.5s-116.333 -79.5 -193 -79.5zM323.999 56.001c55.333 0 101 19.5 137 58.5s54 86.833 54 143.5c0 45.333 -13 86 -39 122l-267 -283c32.667 -27.333 71 -41 115 -41zM169.999 136.001l268.001 283.001
c-34.667 28 -73.334 42 -116.001 42c-55.333 0 -100.833 -19.667 -136.5 -59s-53.5 -87.333 -53.5 -144c0 -44.667 12.667 -85.334 38 -122.001z" />
    <glyph glyph-name="ugrave" unicode="&#xf9;" horiz-adv-x="616" 
d="M276 -11c-61.333 0 -109.667 18.833 -145 56.5s-53 87.834 -53 150.501v321h77v-302c0 -48.667 12.5 -86.834 37.5 -114.501s60.167 -41.5 105.5 -41.5c44.667 0 81.667 15 111 45s44 69 44 117v296h76v-517h-76v90c-42 -67.333 -101 -101 -177 -101zM283.999 591
l-113 108l80 37l95 -145h-62z" />
    <glyph glyph-name="uacute" unicode="&#xfa;" horiz-adv-x="616" 
d="M276 -11c-61.333 0 -109.667 18.833 -145 56.5s-53 87.834 -53 150.501v321h77v-302c0 -48.667 12.5 -86.834 37.5 -114.501s60.167 -41.5 105.5 -41.5c44.667 0 81.667 15 111 45s44 69 44 117v296h76v-517h-76v90c-42 -67.333 -101 -101 -177 -101zM265.999 591l95 145
l80 -37l-113 -108h-62z" />
    <glyph glyph-name="ucircumflex" unicode="&#xfb;" horiz-adv-x="616" 
d="M276 -11c-61.333 0 -109.667 18.833 -145 56.5s-53 87.834 -53 150.501v321h77v-302c0 -48.667 12.5 -86.834 37.5 -114.501s60.167 -41.5 105.5 -41.5c44.667 0 81.667 15 111 45s44 69 44 117v296h76v-517h-76v90c-42 -67.333 -101 -101 -177 -101zM168.999 595
l106 131h68l106 -131h-66l-75 67l-75 -67h-64z" />
    <glyph glyph-name="udieresis" unicode="&#xfc;" horiz-adv-x="616" 
d="M276 -11c-61.333 0 -109.667 18.833 -145 56.5s-53 87.834 -53 150.501v321h77v-302c0 -48.667 12.5 -86.834 37.5 -114.501s60.167 -41.5 105.5 -41.5c44.667 0 81.667 15 111 45s44 69 44 117v296h76v-517h-76v90c-42 -67.333 -101 -101 -177 -101zM175.999 595v95h90
v-95h-90zM351.999 595v95h90v-95h-90z" />
    <glyph glyph-name="yacute" unicode="&#xfd;" horiz-adv-x="591" 
d="M166 -163c-37.333 0 -74 8.66699 -110 26l26 61c24.667 -12.667 51.667 -19 81 -19c23.333 0 43 7.16699 59 21.5s31.667 39.5 47 75.5l-235 515h85l188 -431l166 431h82l-217 -534c-22 -52.667 -46.333 -90.167 -73 -112.5s-59.667 -33.5 -99 -33.5zM267 591l95 145
l80 -37l-113 -108h-62z" />
    <glyph glyph-name="thorn" unicode="&#xfe;" horiz-adv-x="664" 
d="M86 -160v890h77v-317c52 76.667 118 115 198 115c66 0 123.667 -24.5 173 -73.5s74 -114.5 74 -196.5c0 -80.667 -24.667 -145.667 -74 -195s-107 -74 -173 -74c-81.333 0 -147.333 36.667 -198 110v-259h-77zM347 58c52 0 95.333 18.168 130 54.501
s52 85.166 52 146.499c0 59.333 -17.667 107.5 -53 144.5s-78.333 55.5 -129 55.5c-50 0 -93.667 -19 -131 -57s-56 -86 -56 -144s18.667 -105.833 56 -143.5s81 -56.5 131 -56.5z" />
    <glyph glyph-name="ydieresis" unicode="&#xff;" horiz-adv-x="591" 
d="M166 -163c-37.333 0 -74 8.66699 -110 26l26 61c24.667 -12.667 51.667 -19 81 -19c23.333 0 43 7.16699 59 21.5s31.667 39.5 47 75.5l-235 515h85l188 -431l166 431h82l-217 -534c-22 -52.667 -46.333 -90.167 -73 -112.5s-59.667 -33.5 -99 -33.5zM163 595v95h90v-95
h-90zM339 595v95h90v-95h-90z" />
    <glyph glyph-name="dotlessi" unicode="&#x131;" horiz-adv-x="263" 
d="M93 0v517h77v-517h-77z" />
    <glyph glyph-name="Lslash" unicode="&#x141;" horiz-adv-x="649" 
d="M129 0v301l-75 -22v73l75 23v325h78v-301l216 66v-74l-216 -65v-253h395v-73h-473z" />
    <glyph glyph-name="lslash" unicode="&#x142;" horiz-adv-x="323" 
d="M124 0v321l-76 -24v75l76 23v335h76v-312l76 24v-75l-76 -24v-343h-76z" />
    <glyph glyph-name="OE" unicode="&#x152;" horiz-adv-x="1131" 
d="M440 0c-109.333 0 -198.668 33.167 -268.001 99.5s-104 149.833 -104 250.5c0 100 34.833 183.333 104.5 250s158.834 100 267.501 100h626v-72h-409v-239h364v-72h-364v-245h414v-72h-631zM439.998 72h138v556h-138c-86.667 0 -156.667 -26.333 -210 -79
s-80 -119 -80 -199c0 -79.333 26.667 -145.5 80 -198.5s123.333 -79.5 210 -79.5z" />
    <glyph glyph-name="oe" unicode="&#x153;" horiz-adv-x="1049" 
d="M319 -12c-74.667 0 -137.498 26.332 -188.498 78.999s-76.5 116.334 -76.5 191.001c0 74 25.833 137.5 77.5 190.5s115.167 79.5 190.5 79.5c49.333 0 94 -12.5 134 -37.5s70.667 -58.167 92 -99.5c20 42 48.667 75.333 86 100s79.333 37 126 37
c74 0 132.5 -26 175.5 -78s64.5 -117.333 64.5 -196c0 -10 -0.333008 -19 -1 -27h-410c5.33301 -52.667 25.166 -94.5 59.499 -125.5s75.166 -46.5 122.499 -46.5c62 0 116.333 24.333 163 73l48 -43c-56.667 -64.667 -127.334 -97 -212.001 -97
c-48 0 -91.833 12.333 -131.5 37s-70.167 58.667 -91.5 102c-21.333 -42 -52.166 -75.667 -92.499 -101s-85.5 -38 -135.5 -38zM323.002 56.999c54.667 0 99.667 19.332 135 57.999s53 86.334 53 143.001c0 56 -18.333 103.667 -55 143s-81.667 59 -135 59
c-54.667 0 -99.667 -19.5 -135 -58.5s-53 -86.833 -53 -143.5c0 -56 18.333 -103.5 55 -142.5s81.667 -58.5 135 -58.5zM589.002 288.998l332.999 0.000976562c-4.66699 50 -21.167 91.5 -49.5 124.5s-66.833 49.5 -115.5 49.5c-44 0 -81.667 -16.333 -113 -49
s-49.666 -74.334 -54.999 -125.001z" />
    <glyph glyph-name="Scaron" unicode="&#x160;" horiz-adv-x="640" 
d="M339 -10c-107.333 0 -202.667 37.3311 -286 111.998l49 58c37.333 -34 74.833 -59 112.5 -75s80.167 -24 127.5 -24c46.667 0 84.334 11.167 113.001 33.5s43 51.5 43 87.5c0 34 -12.667 61 -38 81s-73.333 37.333 -144 52c-83.333 18 -143.333 42.333 -180 73
s-55 74.334 -55 131.001c0 55.333 21.667 101 65 137s98.333 54 165 54c92.667 0 174.667 -28.667 246 -86l-46 -61c-62 50.667 -129.333 76 -202 76c-44.667 0 -80.667 -10.833 -108 -32.5s-41 -49.167 -41 -82.5c0 -34.667 13.167 -62 39.5 -82s76.5 -38 150.5 -54
c79.333 -17.333 137.166 -41.5 173.499 -72.5s54.5 -73.5 54.5 -127.5c0 -59.333 -22.333 -107.166 -67 -143.499s-102 -54.5 -172 -54.5zM289.999 761.998l-106 131h66l75 -67l75 67h64l-106 -131h-68z" />
    <glyph glyph-name="scaron" unicode="&#x161;" horiz-adv-x="498" 
d="M257 -10c-37.333 0 -75.1689 6.83398 -113.502 20.501s-71.833 32.167 -100.5 55.5l39 55c58.667 -44 118.334 -66 179.001 -66c31.333 0 57 7.66699 77 23s30 35.666 30 60.999c0 23.333 -10.833 41.333 -32.5 54s-53.834 25 -96.501 37c-26 7.33301 -46.667 14 -62 20
s-32.666 14.5 -51.999 25.5s-33.666 25 -42.999 42s-14 37.167 -14 60.5c0 44 16.5 79.667 49.5 107s75.167 41 126.5 41c66.667 0 128.667 -19 186 -57l-35 -58c-51.333 33.333 -102.333 50 -153 50c-30 0 -54.167 -7.16699 -72.5 -21.5s-27.5 -32.833 -27.5 -55.5
c0 -9.33301 2.66699 -18 8 -26s11.333 -14.667 18 -20s17.167 -11 31.5 -17s25.833 -10.333 34.5 -13l41 -13c24.667 -7.33301 45 -14.333 61 -21s33 -15.667 51 -27s31.5 -25.5 40.5 -42.5s13.5 -36.833 13.5 -59.5c0 -48 -17.333 -85.833 -52 -113.5
s-78.667 -41.5 -132 -41.5zM217.997 595.001l-106 131h66l75 -67l75 67h64l-106 -131h-68z" />
    <glyph glyph-name="Ydieresis" unicode="&#x178;" horiz-adv-x="716" 
d="M318 0v277l-291 423h96l236 -350l238 350h92l-291 -422v-278h-80zM225 759v95h90v-95h-90zM401 759v95h90v-95h-90z" />
    <glyph glyph-name="Zcaron" unicode="&#x17d;" horiz-adv-x="693" 
d="M67 0v53l453 576h-438v71h546v-53l-454 -576h454v-71h-561zM317 762l-106 131h66l75 -67l75 67h64l-106 -131h-68z" />
    <glyph glyph-name="zcaron" unicode="&#x17e;" horiz-adv-x="556" 
d="M56 0v49l343 403h-331v65h436v-49l-344 -403h344v-65h-448zM253 595l-106 131h66l75 -67l75 67h64l-106 -131h-68z" />
    <glyph glyph-name="florin" unicode="&#x192;" horiz-adv-x="514" 
d="M93 -5c-16 0 -33.334 1.33301 -52.001 4v66c12.667 -2.66699 27.334 -4 44.001 -4c42.667 0 68.667 25.333 78 76l44 236h-98v67h109l23 119c9.33301 50.667 26.333 87.667 51 111s59.667 35 105 35c32 0 59 -3.66699 81 -11v-66c-26.667 6.66699 -49.667 10 -69 10
c-26 0 -46 -7 -60 -21s-24 -37 -30 -69l-20 -108h144v-67h-156l-45 -244c-8.66699 -46 -25 -79.833 -49 -101.5s-57.333 -32.5 -100 -32.5z" />
    <glyph glyph-name="circumflex" unicode="&#x2c6;" 
d="M110 595l106 131h68l106 -131h-66l-75 67l-75 -67h-64z" />
    <glyph glyph-name="caron" unicode="&#x2c7;" 
d="M216 595l-106 131h66l75 -67l75 67h64l-106 -131h-68z" />
    <glyph glyph-name="breve" unicode="&#x2d8;" 
d="M250 593c-42 0 -76.5 11.833 -103.5 35.5s-41.833 56.167 -44.5 97.5h56c13.333 -46 44 -69 92 -69s78.667 23 92 69h56c-2.66699 -41.333 -17.5 -73.833 -44.5 -97.5s-61.5 -35.5 -103.5 -35.5z" />
    <glyph glyph-name="dotaccent" unicode="&#x2d9;" 
d="M203 595v96h94v-96h-94z" />
    <glyph glyph-name="ring" unicode="&#x2da;" 
d="M250 593c-28 0 -52.333 9.83301 -73 29.5s-31 43.5 -31 71.5c0 26.667 10.333 49.834 31 69.501s45 29.5 73 29.5s52.333 -9.83301 73 -29.5s31 -43.5 31 -71.5c0 -26.667 -10.333 -49.834 -31 -69.501s-45 -29.5 -73 -29.5zM250 631c16.667 0 31.167 6.16699 43.5 18.5
s18.5 27.166 18.5 44.499c0 16.667 -6.16699 31 -18.5 43s-26.833 18 -43.5 18c-17.333 0 -32 -6.16699 -44 -18.5s-18 -27.166 -18 -44.499c0 -16.667 6.16699 -31 18.5 -43s26.833 -18 43.5 -18z" />
    <glyph glyph-name="ogonek" unicode="&#x2db;" 
d="M360 -164c-56.667 -2.66699 -100.333 5.83301 -131 25.5s-46 47.167 -46 82.5c0 22 4.66699 44 14 66h60c-4 -17.333 -6 -34.333 -6 -51c0 -50.667 36.333 -78 109 -82v-41z" />
    <glyph glyph-name="tilde" unicode="&#x2dc;" 
d="M133 586l-47 13c10 37.333 22.333 64.166 37 80.499s34 24.5 58 24.5c16 0 39.667 -6.66699 71 -20s52.333 -20 63 -20c12.667 0 22.5 3.5 29.5 10.5s14.5 19.833 22.5 38.5l47 -13c-10 -37.333 -22.333 -64.166 -37 -80.499s-34 -24.5 -58 -24.5
c-16 0 -39.667 6.66699 -71 20s-52.333 20 -63 20c-12.667 0 -22.5 -3.5 -29.5 -10.5s-14.5 -19.833 -22.5 -38.5z" />
    <glyph glyph-name="hungarumlaut" unicode="&#x2dd;" 
d="M84 595l95 145l75 -37l-108 -108h-62zM248 595l95 145l75 -37l-109 -108h-61z" />
    <glyph glyph-name="Omega" unicode="&#x3a9;" horiz-adv-x="789" 
d="M78 0l-0.00292969 66.002h192v76c-59.333 16 -106.166 49 -140.499 99s-51.5 106.667 -51.5 170c0 87.333 30.833 158.666 92.5 213.999s136.5 83 224.5 83c87.333 0 161.666 -27.833 222.999 -83.5s92 -126.5 92 -212.5c0 -63.333 -17 -120.166 -51 -170.499
s-81 -83.5 -141 -99.5v-76h192v-66h-252v189c56.667 9.33301 99.834 33.833 129.501 73.5s44.5 88.5 44.5 146.5c0 66.667 -22.833 121.667 -68.5 165s-102.5 65 -170.5 65c-67.333 0 -123.666 -21.833 -168.999 -65.5s-68 -98.5 -68 -164.5
c0 -56.667 15.333 -105.834 46 -147.501s73.334 -65.834 128.001 -72.501v-189h-252z" />
    <glyph glyph-name="pi" unicode="&#x3c0;" 
d="M0 0v700h500v-700h-500zM81 49h339l-170 255zM49 96l171 254l-171 254v-508zM450 96v508l-171 -254zM250 395l170 255h-339z" />
    <glyph glyph-name="afii10023" unicode="&#x401;" horiz-adv-x="670" 
d="M99 0v700h506v-72h-427v-239h382v-72h-382v-245h432v-72h-511zM222 762v95h90v-95h-90zM398 762v95h90v-95h-90z" />
    <glyph glyph-name="afii10051" unicode="&#x402;" horiz-adv-x="882" 
d="M564 -23c-34.667 0 -69 6.66699 -103 20l18 68c22 -10 47.667 -15 77 -15c42 0 79 14 111 42s48 71 48 129c0 49.333 -14.667 89.333 -44 120s-68.333 46 -117 46c-82 0 -155 -28.667 -219 -86v-301h-80v628h-207v72h555v-72h-268v-247c70 53.333 146 80 228 80
c70 0 126.5 -21 169.5 -63s64.5 -100.667 64.5 -176c0 -76.667 -21.5 -136.667 -64.5 -180s-99.167 -65 -168.5 -65z" />
    <glyph glyph-name="afii10052" unicode="&#x403;" horiz-adv-x="589" 
d="M99 0v700h447v-72h-368v-628h-79zM257 762l95 145l80 -37l-113 -108h-62z" />
    <glyph glyph-name="afii10053" unicode="&#x404;" horiz-adv-x="739" 
d="M419 -12c-100.667 0 -184.332 34.833 -250.999 104.5s-100 155.5 -100 257.5c0 100.667 33.667 186.167 101 256.5s151.666 105.5 252.999 105.5c58.667 0 108.167 -9.66699 148.5 -29s80.5 -48 120.5 -86l-50 -54c-68 64.667 -141.333 97 -220 97
c-70.667 0 -130.834 -23.667 -180.501 -71s-78.834 -107.333 -87.501 -180h352v-72h-353c7.33301 -73.333 36.333 -134.5 87 -183.5s111.334 -73.5 182.001 -73.5c44.667 0 83.667 8.33301 117 25s68.333 42.667 105 78l58 -52c-39.333 -40 -81.166 -70.5 -125.499 -91.5
s-96.5 -31.5 -156.5 -31.5z" />
    <glyph glyph-name="afii10054" unicode="&#x405;" horiz-adv-x="640" 
d="M339 -10c-107.333 0 -202.667 37.3311 -286 111.998l49 58c37.333 -34 74.833 -59 112.5 -75s80.167 -24 127.5 -24c46.667 0 84.334 11.167 113.001 33.5s43 51.5 43 87.5c0 34 -12.667 61 -38 81s-73.333 37.333 -144 52c-83.333 18 -143.333 42.333 -180 73
s-55 74.334 -55 131.001c0 55.333 21.667 101 65 137s98.333 54 165 54c92.667 0 174.667 -28.667 246 -86l-46 -61c-62 50.667 -129.333 76 -202 76c-44.667 0 -80.667 -10.833 -108 -32.5s-41 -49.167 -41 -82.5c0 -34.667 13.167 -62 39.5 -82s76.5 -38 150.5 -54
c79.333 -17.333 137.166 -41.5 173.499 -72.5s54.5 -73.5 54.5 -127.5c0 -59.333 -22.333 -107.166 -67 -143.499s-102 -54.5 -172 -54.5z" />
    <glyph glyph-name="afii10055" unicode="&#x406;" horiz-adv-x="291" 
d="M106 0v700h79v-700h-79z" />
    <glyph glyph-name="afii10056" unicode="&#x407;" horiz-adv-x="291" 
d="M106 0v700h79v-700h-79zM13 762v95h90v-95h-90zM189 762v95h90v-95h-90z" />
    <glyph glyph-name="afii10057" unicode="&#x408;" horiz-adv-x="553" 
d="M247 -10c-93.333 0 -165.332 41.333 -215.999 124l57 49c22.667 -34 46.167 -59.167 70.5 -75.5s54.166 -24.5 89.499 -24.5c40.667 0 73.667 14.5 99 43.5s38 70.5 38 124.5v469h80v-468c0 -80 -21.333 -141.333 -64 -184c-40 -38.667 -91.333 -58 -154 -58z" />
    <glyph glyph-name="afii10058" unicode="&#x409;" horiz-adv-x="1155" 
d="M86 -8c-31.333 0 -61.6689 5.66797 -91.002 17.001l16 64c14.667 -6.66699 35.334 -10 62.001 -10c13.333 0 25.333 2.16699 36 6.5s23.334 16.333 38.001 36s26.667 46.667 36 81s17.5 84.666 24.5 150.999s10.5 144.833 10.5 235.5v127h443v-271h177
c80.667 0 146.167 -17 196.5 -51s75.5 -85.667 75.5 -155c0 -68.667 -23.5 -123 -70.5 -163s-110.167 -60 -189.5 -60h-268v628h-288v-76c0 -94.667 -3.83301 -176.667 -11.5 -246s-17.667 -123.833 -30 -163.5s-28 -71.167 -47 -94.5s-37.667 -38.5 -56 -45.5
s-39.5 -10.5 -63.5 -10.5zM660.997 72.001h187.001c57.333 0 102.166 12.667 134.499 38s48.5 62.333 48.5 111c0 44.667 -16.5 78.667 -49.5 102s-79.167 35 -138.5 35h-182v-286z" />
    <glyph glyph-name="afii10059" unicode="&#x40a;" horiz-adv-x="1154" 
d="M99 0v700h79v-290h403v290h80v-290h196c74 0 134.5 -16.5 181.5 -49.5s70.5 -82.5 70.5 -148.5c0 -64.667 -22 -116.167 -66 -154.5s-104 -57.5 -180 -57.5h-282v337h-403v-337h-79zM661 72h192c56.667 0 100 11.833 130 35.5s45 58.5 45 104.5c0 42 -15.333 74 -46 96
s-75 33 -133 33h-188v-269z" />
    <glyph glyph-name="afii10060" unicode="&#x40b;" horiz-adv-x="882" 
d="M256 0l-0.000976562 628h-208v72h554v-72h-267v-258c70.667 54 146.667 81 228 81c70 0 126.5 -18 169.5 -54s64.5 -87 64.5 -153v-244h-79v228c0 44.667 -14.667 80.667 -44 108s-68.666 41 -117.999 41c-80 0 -153.667 -30 -221 -90v-287h-79z" />
    <glyph glyph-name="afii10061" unicode="&#x40c;" horiz-adv-x="719" 
d="M99 0v700h79v-418l402 418h102l-300 -306l313 -394h-99l-269 339l-149 -151v-188h-79zM312 762l95 145l80 -37l-113 -108h-62z" />
    <glyph glyph-name="afii10062" unicode="&#x40e;" horiz-adv-x="729" 
d="M202 -12c-41.333 0 -80.668 9.66699 -118.001 29l31 63c26 -14 55.667 -21 89 -21c56.667 0 103.334 35 140.001 105l-308 536h90l258 -457l223 457h86l-277 -553c-52.667 -106 -124 -159 -214 -159zM383.998 758c-37.333 0 -69 11.5 -95 34.5s-42 52.5 -48 88.5l54 11
c13.333 -46.667 43 -70 89 -70s75.667 23.333 89 70l54 -11c-6 -36 -22 -65.5 -48 -88.5s-57.667 -34.5 -95 -34.5z" />
    <glyph glyph-name="afii10145" unicode="&#x40f;" horiz-adv-x="750" 
d="M339 -156v156h-240v700h79v-628h394v628h79v-700h-233v-156h-79z" />
    <glyph glyph-name="afii10017" unicode="&#x410;" horiz-adv-x="790" 
d="M39 0l319 705h74l319 -705h-85l-82 185h-381l-83 -185h-81zM234 256h319l-159 357z" />
    <glyph glyph-name="afii10018" unicode="&#x411;" horiz-adv-x="708" 
d="M99 0l-0.000976562 699.999h502v-72h-423v-215h207c78.667 0 142.667 -17.167 192 -51.5s74 -85.166 74 -152.499s-23.167 -119 -69.5 -155s-109.166 -54 -188.499 -54h-294zM177.999 71.999h208.999c123.333 0 185 47 185 141c0 43.333 -16.667 75.833 -50 97.5
s-79.666 32.5 -138.999 32.5h-205v-271z" />
    <glyph glyph-name="afii10019" unicode="&#x412;" horiz-adv-x="722" 
d="M99 0v700h298c82 0 143 -20.667 183 -62c30 -31.333 45 -69.333 45 -114c0 -76 -37 -130 -111 -162c100 -30 150 -87 150 -171c0 -59.333 -23 -106 -69 -140s-107.667 -51 -185 -51h-311zM177 71l235.001 -0.000976562c53.333 0 95.333 11.167 126 33.5s46 53.5 46 93.5
c0 38.667 -15.833 68.334 -47.5 89.001s-77.834 31 -138.501 31h-221v-247zM177.001 387.999l207 0.000976562c48.667 0 87.667 11 117 33s44 53.333 44 94c0 35.333 -13.5 63.166 -40.5 83.499s-65.167 30.5 -114.5 30.5h-213v-241z" />
    <glyph glyph-name="afii10020" unicode="&#x413;" horiz-adv-x="589" 
d="M99 0v700h447v-72h-368v-628h-79z" />
    <glyph glyph-name="afii10021" unicode="&#x414;" horiz-adv-x="754" 
d="M10 -156v227.999h72c70.667 112.667 106 281.334 106 506.001v122h458v-628h91l-12 -228h-66v156h-568l-14 -156h-67zM171 71.999l396.001 -0.000976562v556h-303v-91c0 -92 -8.33301 -180.667 -25 -266s-39.334 -151.666 -68.001 -198.999z" />
    <glyph glyph-name="afii10022" unicode="&#x415;" horiz-adv-x="670" 
d="M99 0v700h506v-72h-427v-239h382v-72h-382v-245h432v-72h-511z" />
    <glyph glyph-name="afii10024" unicode="&#x416;" horiz-adv-x="1089" 
d="M24 0l288 400l-270 300h98l365 -413v413h79v-413l365 413h98l-270 -300l288 -400h-98l-245 341l-138 -153v-188h-79v188l-139 153l-244 -341h-98z" />
    <glyph glyph-name="afii10025" unicode="&#x417;" horiz-adv-x="636" 
d="M331 -12c-112 0 -209.334 37.668 -292.001 113.001l47 55c70.667 -66.667 152.667 -100 246 -100c44.667 0 83 12.5 115 37.5s48 57.5 48 97.5c0 43.333 -17.333 75.666 -52 96.999s-80.334 32 -137.001 32h-77v65h77c50.667 0 91.834 11.833 123.501 35.5
s47.5 55.834 47.5 96.501c0 36 -14.833 65.833 -44.5 89.5s-67.5 35.5 -113.5 35.5c-78.667 0 -147.334 -26.333 -206.001 -79l-46 55c36.667 31.333 74.834 54.666 114.501 69.999s86.167 23 139.5 23c69.333 0 126 -17.667 170 -53s66 -80 66 -134
c0 -79.333 -42.667 -134.333 -128 -165c44.667 -13.333 80.334 -34.333 107.001 -63s40 -65 40 -109c0 -56.667 -22.833 -104 -68.5 -142s-104.5 -57 -176.5 -57z" />
    <glyph glyph-name="afii10026" unicode="&#x418;" horiz-adv-x="770" 
d="M99 0v700h79v-581l418 581h75v-700h-78v581l-417 -581h-77z" />
    <glyph glyph-name="afii10027" unicode="&#x419;" horiz-adv-x="770" 
d="M99 0v700h79v-581l418 581h75v-700h-78v581l-417 -581h-77zM390 758c-37.333 0 -69 11.5 -95 34.5s-42 52.5 -48 88.5l54 11c13.333 -46.667 43 -70 89 -70s75.667 23.333 89 70l54 -11c-6 -36 -22 -65.5 -48 -88.5s-57.667 -34.5 -95 -34.5z" />
    <glyph glyph-name="afii10028" unicode="&#x41a;" horiz-adv-x="719" 
d="M99 0v700h79v-418l402 418h102l-300 -306l313 -394h-99l-269 339l-149 -151v-188h-79z" />
    <glyph glyph-name="afii10029" unicode="&#x41b;" horiz-adv-x="770" 
d="M86 -8c-31.333 0 -61.6689 5.66797 -91.002 17.001l16 64c14.667 -6.66699 35.334 -10 62.001 -10c13.333 0 25.333 2.16699 36 6.5s23.334 16.333 38.001 36s26.667 46.667 36 81s17.5 84.666 24.5 150.999s10.5 144.833 10.5 235.5v127h453v-700h-79v628h-298v-76
c0 -94.667 -3.83301 -176.667 -11.5 -246s-17.667 -123.833 -30 -163.5s-28 -71.167 -47 -94.5s-37.667 -38.5 -56 -45.5s-39.5 -10.5 -63.5 -10.5z" />
    <glyph glyph-name="afii10030" unicode="&#x41c;" horiz-adv-x="868" 
d="M99 0v700h80l255 -382l255 382h80v-700h-79v567l-255 -375h-4l-255 374v-566h-77z" />
    <glyph glyph-name="afii10031" unicode="&#x41d;" horiz-adv-x="760" 
d="M99 0v700h79v-311h404v311h79v-700h-79v315h-404v-315h-79z" />
    <glyph glyph-name="afii10032" unicode="&#x41e;" horiz-adv-x="850" 
d="M424 -12c-104 0 -189.333 35.333 -256 106s-100 156 -100 256c0 99.333 33.667 184.5 101 255.5s153 106.5 257 106.5s189.333 -35.333 256 -106s100 -156 100 -256c0 -99.333 -33.667 -184.5 -101 -255.5s-153 -106.5 -257 -106.5zM426 61
c79.333 0 144.833 27.833 196.5 83.5s77.5 124.167 77.5 205.5c0 80.667 -26.167 149 -78.5 205s-118.166 84 -197.499 84s-144.833 -27.833 -196.5 -83.5s-77.5 -124.167 -77.5 -205.5c0 -80.667 26.167 -149 78.5 -205s118.166 -84 197.499 -84z" />
    <glyph glyph-name="afii10033" unicode="&#x41f;" horiz-adv-x="750" 
d="M99 0v700h552v-700h-79v628h-394v-628h-79z" />
    <glyph glyph-name="afii10034" unicode="&#x420;" horiz-adv-x="668" 
d="M99 0v700h262c80 0 143.667 -20 191 -60s71 -94.667 71 -164c0 -72.667 -26.167 -129 -78.5 -169s-117.833 -60 -196.5 -60h-170v-247h-79zM178 319l173 0.000976562c58 0 104.5 14.167 139.5 42.5s52.5 66.166 52.5 113.499c0 48.667 -16.833 86.167 -50.5 112.5
s-79.5 39.5 -137.5 39.5h-177v-308z" />
    <glyph glyph-name="afii10035" unicode="&#x421;" horiz-adv-x="738" 
d="M419 -12c-100.667 0 -184.333 34.833 -251 104.5s-100 155.5 -100 257.5c0 100.667 33.667 186.167 101 256.5s151.666 105.5 252.999 105.5c58.667 0 108.667 -9.5 150 -28.5s81.666 -47.167 120.999 -84.5l-52 -56c-67.333 64 -140.666 96 -219.999 96
c-77.333 0 -141.833 -27.667 -193.5 -83s-77.5 -124 -77.5 -206c0 -81.333 26 -149.833 78 -205.5s116.333 -83.5 193 -83.5c45.333 0 85.333 8.33301 120 25s70 42 106 76l52 -55c-39.333 -39.333 -80.666 -69 -123.999 -89s-95.333 -30 -156 -30z" />
    <glyph glyph-name="afii10036" unicode="&#x422;" horiz-adv-x="648" 
d="M284 0v628h-235v72h550v-72h-235v-628h-80z" />
    <glyph glyph-name="afii10037" unicode="&#x423;" horiz-adv-x="729" 
d="M202 -12c-41.333 0 -80.668 9.66699 -118.001 29l31 63c26 -14 55.667 -21 89 -21c56.667 0 103.334 35 140.001 105l-308 536h90l258 -457l223 457h86l-277 -553c-52.667 -106 -124 -159 -214 -159z" />
    <glyph glyph-name="afii10038" unicode="&#x424;" horiz-adv-x="897" 
d="M409 -26v77c-111.333 0 -198.166 27.333 -260.499 82s-93.5 128 -93.5 220s31.167 165.167 93.5 219.5s149.166 81.5 260.499 81.5v69h79v-69c111.333 0 198.166 -27.167 260.499 -81.5s93.5 -127.5 93.5 -219.5s-31.167 -165.333 -93.5 -220s-149.166 -82 -260.499 -82
v-77h-79zM409 123v459c-86.667 0 -153.667 -19.833 -201 -59.5s-71 -96.5 -71 -170.5s23.667 -130.667 71 -170s114.333 -59 201 -59zM488 123c86.667 0 153.667 19.667 201 59s71 96 71 170s-23.667 130.833 -71 170.5s-114.333 59.5 -201 59.5v-459z" />
    <glyph glyph-name="afii10039" unicode="&#x425;" horiz-adv-x="725" 
d="M46 0l269 357l-259 343h93l215 -286l213 286h92l-259 -342l269 -358h-94l-224 301l-224 -301h-91z" />
    <glyph glyph-name="afii10040" unicode="&#x426;" horiz-adv-x="765" 
d="M670 -156v156h-571v700h79v-628h400v628h79v-628h91l-12 -228h-66z" />
    <glyph glyph-name="afii10041" unicode="&#x427;" horiz-adv-x="695" 
d="M517 0l-0.000976562 299c-30.667 -18 -66.834 -34 -108.501 -48s-78.167 -21 -109.5 -21c-69.333 0 -124.333 17.667 -165 53s-61 86.333 -61 153v264h79v-251c0 -44.667 13.333 -80 40 -106s64.334 -39 113.001 -39c64.667 0 135.334 22.667 212.001 68v328h79v-700h-79
z" />
    <glyph glyph-name="afii10042" unicode="&#x428;" horiz-adv-x="1103" 
d="M99 0v700h79v-628h334v628h79v-628h334v628h79v-700h-905z" />
    <glyph glyph-name="afii10043" unicode="&#x429;" horiz-adv-x="1112" 
d="M1017 -156v156h-918v700h79v-628h334v628h79v-628h334v628h79v-628h91l-12 -228h-66z" />
    <glyph glyph-name="afii10044" unicode="&#x42a;" horiz-adv-x="801" 
d="M228 0v628h-184v72h263v-271h177c80.667 0 146.167 -17 196.5 -51s75.5 -85.667 75.5 -155c0 -68.667 -23.5 -123 -70.5 -163s-110.167 -60 -189.5 -60h-268zM307 72h187.001c57.333 0 102.166 12.667 134.499 38s48.5 62.333 48.5 111c0 44.667 -16.5 78.667 -49.5 102
s-79.167 35 -138.5 35h-182v-286z" />
    <glyph glyph-name="afii10045" unicode="&#x42b;" horiz-adv-x="895" 
d="M99 0v700h79v-271h177c80.667 0 146.167 -17 196.5 -51s75.5 -85.667 75.5 -155c0 -68.667 -23.5 -123 -70.5 -163s-110.167 -60 -189.5 -60h-268zM178 72h187.001c57.333 0 102.166 12.667 134.499 38s48.5 62.333 48.5 111c0 44.667 -16.5 78.667 -49.5 102
s-79.167 35 -138.5 35h-182v-286zM717.001 0v700h79v-700h-79z" />
    <glyph glyph-name="afii10046" unicode="&#x42c;" horiz-adv-x="672" 
d="M99 0v700h79v-271h177c80.667 0 146.167 -17 196.5 -51s75.5 -85.667 75.5 -155c0 -68.667 -23.5 -123 -70.5 -163s-110.167 -60 -189.5 -60h-268zM178 72h187.001c57.333 0 102.166 12.667 134.499 38s48.5 62.333 48.5 111c0 44.667 -16.5 78.667 -49.5 102
s-79.167 35 -138.5 35h-182v-286z" />
    <glyph glyph-name="afii10047" unicode="&#x42d;" horiz-adv-x="739" 
d="M319 -12c-60 0 -112.165 10.5 -156.498 31.5s-86.166 51.5 -125.499 91.5l58 52c36.667 -35.333 71.667 -61.333 105 -78s72.333 -25 117 -25c70.667 0 131.334 24.5 182.001 73.5s79.667 110.167 87 183.5h-353v72h352c-8.66699 72.667 -37.834 132.667 -87.501 180
s-109.834 71 -180.501 71c-78.667 0 -152 -32.333 -220 -97l-50 54c40 38 80.167 66.667 120.5 86s89.833 29 148.5 29c101.333 0 185.666 -35.167 252.999 -105.5s101 -155.833 101 -256.5c0 -102 -33.333 -187.833 -100 -257.5s-150.334 -104.5 -251.001 -104.5z" />
    <glyph glyph-name="afii10048" unicode="&#x42e;" horiz-adv-x="1050" 
d="M649 -12c-92 0 -168.001 30.833 -228.001 92.5s-93.667 140.167 -101 235.5h-142v-316h-79v700h79v-312h142c8 93.333 42.5 170.666 103.5 231.999s136.833 92 227.5 92c97.333 0 176.833 -34.333 238.5 -103s92.5 -154.667 92.5 -258s-31.167 -189.666 -93.5 -258.999
s-142.166 -104 -239.499 -104zM650.999 60c72.667 0 132.502 27.5 179.502 82.5s70.5 124.167 70.5 207.5c0 82 -23.833 150.833 -71.5 206.5s-107.834 83.5 -180.501 83.5s-132.334 -27.5 -179.001 -82.5s-70 -124.167 -70 -207.5c0 -82 23.667 -150.833 71 -206.5
s107.333 -83.5 180 -83.5z" />
    <glyph glyph-name="afii10049" unicode="&#x42f;" horiz-adv-x="725" 
d="M42 0l219 280.998c-58 10.667 -104.333 33.834 -139 69.501s-52 81.834 -52 138.501c0 59.333 17.667 106 53 140c47.333 47.333 115.333 71 204 71h299v-700h-79v268h-201l-208 -268h-96zM332 334.998h214.999v294h-215c-57.333 0 -102.166 -13.167 -134.499 -39.5
s-48.5 -61.833 -48.5 -106.5s17 -80.5 51 -107.5s78 -40.5 132 -40.5z" />
    <glyph glyph-name="afii10065" unicode="&#x430;" horiz-adv-x="579" 
d="M240 -11c-52.667 0 -97.999 14.333 -135.999 43s-57 68.667 -57 120c0 54 20 95.667 60 125s93.667 44 161 44c53.333 0 106 -7.33301 158 -22v16c0 45.333 -13.333 80 -40 104s-64.334 36 -113.001 36c-50.667 0 -103 -12.333 -157 -37l-23 63
c64 29.333 126.667 44 188 44c73.333 0 129 -19 167 -57c36 -36 54 -86.667 54 -152v-316h-76v77c-46 -58.667 -108 -88 -186 -88zM255.001 51c48 0 88.667 13 122 39s50 59.333 50 100v48c-50.667 14.667 -101 22 -151 22c-47.333 0 -84.333 -9.5 -111 -28.5
s-40 -44.833 -40 -77.5c0 -31.333 12.5 -56.333 37.5 -75s55.833 -28 92.5 -28z" />
    <glyph glyph-name="afii10066" unicode="&#x431;" horiz-adv-x="647" 
d="M329 -12c-79.333 0 -142.834 26.1689 -190.501 78.502s-71.5 123.166 -71.5 212.499c0 32.667 0.666992 60.5 2 83.5s4 48.5 8 76.5s10.333 52 19 72s19.834 39.667 33.501 59s31.5 35.666 53.5 48.999s47.667 23.333 77 30l288 68l15 -65l-280 -69
c-52 -13.333 -89.167 -34.5 -111.5 -63.5s-35.5 -69.167 -39.5 -120.5c44 74.667 115.333 112 214 112c68 0 126.333 -25.167 175 -75.5s73 -110.833 73 -181.5c0 -73.333 -25.333 -136 -76 -188s-113.667 -78 -189 -78zM330.999 57.002
c52.667 0 96.334 18.833 131.001 56.5s52 83.834 52 138.501c0 54 -17.833 100 -53.5 138s-79.5 57 -131.5 57c-52.667 0 -96.334 -18.833 -131.001 -56.5s-52 -83.834 -52 -138.501c0 -54 17.833 -100 53.5 -138s79.5 -57 131.5 -57z" />
    <glyph glyph-name="afii10067" unicode="&#x432;" horiz-adv-x="586" 
d="M86 0v516.999h250c51.333 0 92.333 -11.667 123 -35s46 -54.666 46 -93.999c0 -55.333 -28.667 -95 -86 -119c76 -20.667 114 -63.334 114 -128.001c0 -43.333 -17 -77.666 -51 -102.999s-79.667 -38 -137 -38h-259zM163 65.999l171.999 0.000976562
c36.667 0 65.667 7.66699 87 23s32 36.666 32 63.999c0 25.333 -11.167 45 -33.5 59s-54.166 21 -95.499 21h-162v-167zM162.999 295h159c32 0 57.5 7.16699 76.5 21.5s28.5 34.833 28.5 61.5c0 22 -9 39.667 -27 53s-43.333 20 -76 20h-161v-156z" />
    <glyph glyph-name="afii10068" unicode="&#x433;" horiz-adv-x="463" 
d="M86 0v517h351v-68h-274v-449h-77z" />
    <glyph glyph-name="afii10069" unicode="&#x434;" horiz-adv-x="601" 
d="M10 -129v197h56c46 84 69 203.667 69 359v90h368v-449h78l-12 -197h-64v129h-418l-14 -129h-63zM148 68h278v381h-217v-72c0 -130 -20.333 -233 -61 -309z" />
    <glyph glyph-name="afii10070" unicode="&#x435;" horiz-adv-x="592" 
d="M312 -12c-72.667 0 -133.831 25.1689 -183.498 75.502s-74.5 115.166 -74.5 194.499c0 75.333 23.667 139.166 71 191.499s106.333 78.5 177 78.5c74 0 132.667 -26 176 -78s65 -117.333 65 -196c0 -10 -0.333008 -19 -1 -27h-410
c5.33301 -52.667 25.166 -94.5 59.499 -125.5s75.166 -46.5 122.499 -46.5c62 0 116.333 24.333 163 73l48 -43c-58 -64.667 -129 -97 -213 -97zM132.003 289.002l332.999 0.000976562c-4.66699 50 -21.167 91.5 -49.5 124.5s-66.833 49.5 -115.5 49.5
c-44 0 -81.667 -16.333 -113 -49s-49.666 -74.334 -54.999 -125.001z" />
    <glyph glyph-name="afii10072" unicode="&#x436;" horiz-adv-x="851" 
d="M20 0l212 296l-201 221h93l263 -300v300h77v-300l263 300h93l-201 -221l212 -296h-90l-172 241l-105 -115v-126h-77v126l-105 115l-172 -241h-90z" />
    <glyph glyph-name="afii10073" unicode="&#x437;" horiz-adv-x="512" 
d="M250 -12c-79.333 0 -150.669 25.668 -214.002 77.001l39 57c52.667 -44.667 110.334 -67 173.001 -67c35.333 0 65.5 8.16699 90.5 24.5s37.5 38.833 37.5 67.5c0 26.667 -11.333 47.5 -34 62.5s-54.667 22.5 -96 22.5h-69v63h70c34 0 61.667 8.16699 83 24.5
s32 37.833 32 64.5c0 23.333 -10.5 42 -31.5 56s-47.833 21 -80.5 21c-61.333 0 -113.666 -17.333 -156.999 -52l-38 54c56 43.333 122.667 65 200 65c57.333 0 102.833 -12.833 136.5 -38.5s50.5 -58.834 50.5 -99.501c0 -56.667 -27.667 -96.334 -83 -119.001
c64 -22.667 96 -65 96 -127c0 -43.333 -18.667 -80.166 -56 -110.499s-87 -45.5 -149 -45.5z" />
    <glyph glyph-name="afii10074" unicode="&#x438;" horiz-adv-x="631" 
d="M86 0v517h77v-409l307 409h75v-517h-77v409l-308 -409h-74z" />
    <glyph glyph-name="afii10075" unicode="&#x439;" horiz-adv-x="631" 
d="M86 0v517h77v-409l307 409h75v-517h-77v409l-308 -409h-74zM313 591c-36.667 0 -67.8301 11.333 -93.4971 34s-41.5 52 -47.5 88l53 11c13.333 -46.667 42.666 -70 87.999 -70s74.666 23.333 87.999 70l53 -11c-6 -36 -21.833 -65.333 -47.5 -88s-56.834 -34 -93.501 -34
z" />
    <glyph glyph-name="afii10076" unicode="&#x43a;" horiz-adv-x="567" 
d="M86 0v517h77v-298l283 298h95l-216 -224l222 -293h-91l-184 237l-109 -112v-125h-77z" />
    <glyph glyph-name="afii10077" unicode="&#x43b;" horiz-adv-x="611" 
d="M61 -8c-20 0 -40.666 2.66211 -61.999 7.99512l9 66c15.333 -4.66699 27.666 -7 36.999 -7c14.667 0 26.667 1.83301 36 5.5s19.5 13.334 30.5 29.001s19.5 37.834 25.5 66.501s11.167 69.334 15.5 122.001s6.5 116.667 6.5 192v43h366v-517h-77v449h-216v-12
c0 -78.667 -3 -145.667 -9 -201s-13.5 -98.666 -22.5 -129.999s-21.5 -55.666 -37.5 -72.999s-31.5 -28.5 -46.5 -33.5s-33.5 -7.5 -55.5 -7.5z" />
    <glyph glyph-name="afii10078" unicode="&#x43c;" horiz-adv-x="705" 
d="M86 0v517h73l193 -272l193 272h74v-517h-78v394l-191 -262l-189 262v-394h-75z" />
    <glyph glyph-name="afii10079" unicode="&#x43d;" horiz-adv-x="624" 
d="M86 0v517h77v-223h298v223h77v-517h-77v226h-298v-226h-77z" />
    <glyph glyph-name="afii10080" unicode="&#x43e;" horiz-adv-x="646" 
d="M322 -12c-76.667 0 -140.501 26.333 -191.501 79s-76.5 116.334 -76.5 191.001c0 74 25.833 137.5 77.5 190.5s115.834 79.5 192.501 79.5s140.667 -26.333 192 -79s77 -116.334 77 -191.001c0 -74 -26 -137.5 -78 -190.5s-116.333 -79.5 -193 -79.5zM323.999 57
c55.333 0 100.832 19.332 136.499 57.999s53.5 86.334 53.5 143.001c0 56 -18.5 103.667 -55.5 143s-82.5 59 -136.5 59c-55.333 0 -100.666 -19.5 -135.999 -58.5s-53 -86.833 -53 -143.5c0 -56 18.333 -103.5 55 -142.5s82 -58.5 136 -58.5z" />
    <glyph glyph-name="afii10081" unicode="&#x43f;" horiz-adv-x="620" 
d="M86 0v517h448v-517h-77v449h-294v-449h-77z" />
    <glyph glyph-name="afii10082" unicode="&#x440;" horiz-adv-x="664" 
d="M86 -160v677h77v-104c52 76.667 118 115 198 115c66 0 123.667 -24.5 173 -73.5s74 -114.5 74 -196.5c0 -80.667 -24.667 -145.667 -74 -195s-107 -74 -173 -74c-81.333 0 -147.333 36.667 -198 110v-259h-77zM347 58c52 0 95.333 18.168 130 54.501
s52 85.166 52 146.499c0 59.333 -17.667 107.5 -53 144.5s-78.333 55.5 -129 55.5c-50 0 -93.667 -19 -131 -57s-56 -86 -56 -144s18.667 -105.833 56 -143.5s81 -56.5 131 -56.5z" />
    <glyph glyph-name="afii10083" unicode="&#x441;" horiz-adv-x="571" 
d="M319 -12c-74.667 0 -137.5 26.5 -188.5 79.5s-76.5 116.5 -76.5 190.5s25.5 137.5 76.5 190.5s113.833 79.5 188.5 79.5c80 0 149 -30.667 207 -92l-49 -52c-48 50.667 -101 76 -159 76c-52 0 -95.833 -19.5 -131.5 -58.5s-53.5 -86.833 -53.5 -143.5
c0 -56 18.167 -103.5 54.5 -142.5s81.5 -58.5 135.5 -58.5c55.333 0 107.333 26 156 78l51 -47c-60 -66.667 -130.333 -100 -211 -100z" />
    <glyph glyph-name="afii10084" unicode="&#x442;" 
d="M211 0v449h-185v68h448v-68h-185v-449h-78z" />
    <glyph glyph-name="afii10085" unicode="&#x443;" horiz-adv-x="591" 
d="M166 -163c-37.333 0 -74 8.66699 -110 26l26 61c24.667 -12.667 51.667 -19 81 -19c23.333 0 43 7.16699 59 21.5s31.667 39.5 47 75.5l-235 515h85l188 -431l166 431h82l-217 -534c-22 -52.667 -46.333 -90.167 -73 -112.5s-59.667 -33.5 -99 -33.5z" />
    <glyph glyph-name="afii10086" unicode="&#x444;" horiz-adv-x="873" 
d="M397 -160v201.999c-41.333 -35.333 -84.333 -53 -129 -53c-62.667 0 -113.334 24.167 -152.001 72.5s-58 114.5 -58 198.5c0 82.667 19.333 148 58 196s89.334 72 152.001 72c44.667 0 87.667 -18.667 129 -56v228h78v-228c41.333 37.333 84.333 56 129 56
c63.333 0 114.333 -24.167 153 -72.5s58 -114.166 58 -197.499c0 -82.667 -19.5 -148.167 -58.5 -196.5s-89.833 -72.5 -152.5 -72.5c-28.667 0 -52.167 4.5 -70.5 13.5s-37.833 22.167 -58.5 39.5v-202h-78zM284 56.999c43.333 0 81 17 113 51v300
c-32 34 -69.667 51 -113 51c-48 0 -84.333 -18 -109 -54s-37 -85.667 -37 -149c0 -132.667 48.667 -199 146 -199zM589 56.999c97.333 0 146 66.999 146 200.999c0 62.667 -12.333 111.834 -37 147.501s-61 53.5 -109 53.5c-43.333 0 -81.333 -17 -114 -51v-300
c32.667 -34 70.667 -51 114 -51z" />
    <glyph glyph-name="afii10087" unicode="&#x445;" horiz-adv-x="574" 
d="M39 0l203 263l-195 254h88l153 -200l153 200h86l-196 -252l204 -265h-89l-160 211l-161 -211h-86z" />
    <glyph glyph-name="afii10088" unicode="&#x446;" horiz-adv-x="628" 
d="M532 -129v129h-446v517h77v-449h290v449h77v-449h78l-12 -197h-64z" />
    <glyph glyph-name="afii10089" unicode="&#x447;" horiz-adv-x="577" 
d="M414 0l0.000976562 213.001c-20.667 -12 -47.667 -22.833 -81 -32.5s-64 -14.5 -92 -14.5c-52 0 -93.5 13.333 -124.5 40s-46.5 65 -46.5 115v196h77v-185c0 -30.667 9.16699 -54.834 27.5 -72.501s43.833 -26.5 76.5 -26.5c61.333 0 115.666 16.333 162.999 49v235h77
v-517h-77z" />
    <glyph glyph-name="afii10090" unicode="&#x448;" horiz-adv-x="908" 
d="M86 0v517h77v-449h252v449h77v-449h252v449h78v-517h-736z" />
    <glyph glyph-name="afii10091" unicode="&#x449;" horiz-adv-x="920" 
d="M824 -129v129h-738v517h77v-449h252v449h77v-449h252v449h78v-449h78l-12 -197h-64z" />
    <glyph glyph-name="afii10092" unicode="&#x44a;" horiz-adv-x="628" 
d="M176 0l-0.000976562 448.999h-156v68h233v-194h138c60 0 109 -12.833 147 -38.5s57 -64.5 57 -116.5c0 -51.333 -17.667 -92.166 -53 -122.499s-82.666 -45.5 -141.999 -45.5h-224zM252.999 67.999h140c39.333 0 69.833 8.33301 91.5 25s32.5 41 32.5 73
c0 29.333 -11.167 51.833 -33.5 67.5s-53.5 23.5 -93.5 23.5h-137v-189z" />
    <glyph glyph-name="afii10093" unicode="&#x44b;" horiz-adv-x="761" 
d="M86 0l-0.000976562 516.999h77v-194h138c60 0 109 -12.833 147 -38.5s57 -64.5 57 -116.5c0 -51.333 -17.667 -92.166 -53 -122.499s-82.666 -45.5 -141.999 -45.5h-224zM162.999 67.999h140c39.333 0 69.833 8.33301 91.5 25s32.5 41 32.5 73
c0 29.333 -11.167 51.833 -33.5 67.5s-53.5 23.5 -93.5 23.5h-137v-189zM597.999 -0.000976562v517h77v-517h-77z" />
    <glyph glyph-name="afii10094" unicode="&#x44c;" horiz-adv-x="538" 
d="M86 0l-0.000976562 516.999h77v-194h138c60 0 109 -12.833 147 -38.5s57 -64.5 57 -116.5c0 -51.333 -17.667 -92.166 -53 -122.499s-82.666 -45.5 -141.999 -45.5h-224zM162.999 67.999h140c39.333 0 69.833 8.33301 91.5 25s32.5 41 32.5 73
c0 29.333 -11.167 51.833 -33.5 67.5s-53.5 23.5 -93.5 23.5h-137v-189z" />
    <glyph glyph-name="afii10095" unicode="&#x44d;" horiz-adv-x="571" 
d="M252 -12c-47.333 0 -87.501 8.33203 -120.501 24.999s-63.5 41.667 -91.5 75l51 48c49.333 -54 101.333 -81 156 -81c49.333 0 92 16.667 128 50s56.667 74.333 62 123h-236v65h235c-5.33301 46.667 -25.5 86.334 -60.5 119.001s-76.5 49 -124.5 49
c-58.667 0 -112 -25.667 -160 -77l-45 50c56 62.667 126 94 210 94c74.667 0 136.834 -26.667 186.501 -80s74.5 -117.333 74.5 -192c0 -73.333 -25.667 -136.333 -77 -189s-114 -79 -188 -79z" />
    <glyph glyph-name="afii10096" unicode="&#x44e;" horiz-adv-x="840" 
d="M530 -12c-70.667 0 -128.667 22.668 -174 68.001s-71.333 102.333 -78 171h-115v-227h-77v517h77v-225h115c8 67.333 34.833 123.5 80.5 168.5s103.5 67.5 173.5 67.5c76 0 137.5 -26 184.5 -78s70.5 -116 70.5 -192c0 -74.667 -23.667 -138.334 -71 -191.001
s-109.333 -79 -186 -79zM532 57.001c54 0 96.667 19.167 128 57.5s47 86.166 47 143.499s-16.333 105.166 -49 143.499s-75.334 57.5 -128.001 57.5c-53.333 0 -95.666 -19.167 -126.999 -57.5s-47 -86.166 -47 -143.499s16.167 -105.166 48.5 -143.499
s74.833 -57.5 127.5 -57.5z" />
    <glyph glyph-name="afii10097" unicode="&#x44f;" horiz-adv-x="584" 
d="M40 0l158 200.001c-40.667 9.33301 -73.834 27.666 -99.501 54.999s-38.5 61 -38.5 101c0 48 17.333 86.833 52 116.5s82.334 44.5 143.001 44.5h243v-517h-77v188h-143l-62 -82l-81 -106h-95zM261 253.001h160v196h-162c-38 0 -67.833 -8.5 -89.5 -25.5
s-32.5 -40.5 -32.5 -70.5c0 -30.667 11.5 -55 34.5 -73s52.833 -27 89.5 -27z" />
    <glyph glyph-name="afii10071" unicode="&#x451;" horiz-adv-x="592" 
d="M312 -12c-72.667 0 -133.831 25.1689 -183.498 75.502s-74.5 115.166 -74.5 194.499c0 75.333 23.667 139.166 71 191.499s106.333 78.5 177 78.5c74 0 132.667 -26 176 -78s65 -117.333 65 -196c0 -10 -0.333008 -19 -1 -27h-410
c5.33301 -52.667 25.166 -94.5 59.499 -125.5s75.166 -46.5 122.499 -46.5c62 0 116.333 24.333 163 73l48 -43c-58 -64.667 -129 -97 -213 -97zM132.003 289.002l332.999 0.000976562c-4.66699 50 -21.167 91.5 -49.5 124.5s-66.833 49.5 -115.5 49.5
c-44 0 -81.667 -16.333 -113 -49s-49.666 -74.334 -54.999 -125.001zM163.002 595.003v95h90v-95h-90zM339.002 595.003v95h90v-95h-90z" />
    <glyph glyph-name="afii10099" unicode="&#x452;" horiz-adv-x="616" 
d="M343 -12c-36 0 -70 6.66699 -102 20l15 65c22 -10.667 46.333 -16 73 -16c39.333 0 72 14.5 98 43.5s39 66.833 39 113.5v77c0 48 -12.833 86.167 -38.5 114.5s-61.167 42.5 -106.5 42.5c-44.667 0 -82.167 -15.5 -112.5 -46.5s-45.5 -70.167 -45.5 -117.5v-284h-77v572
h-80v62h80v96h77v-96h213v-62h-213v-157c42 68.667 102 103 180 103c62 0 110.833 -19.167 146.5 -57.5s53.5 -88.5 53.5 -150.5v-115c0 -62 -17.833 -112 -53.5 -150s-84.5 -57 -146.5 -57z" />
    <glyph glyph-name="afii10100" unicode="&#x453;" horiz-adv-x="463" 
d="M86 0v517h351v-68h-274v-449h-77zM204 595l95 145l80 -37l-113 -108h-62z" />
    <glyph glyph-name="afii10101" unicode="&#x454;" horiz-adv-x="571" 
d="M318 -12c-74 0 -136.668 26.334 -188.001 79.001s-77 115.667 -77 189c0 74.667 24.833 138.667 74.5 192s111.834 80 186.501 80c84 0 154 -31.333 210 -94l-45 -50c-48 51.333 -101.333 77 -160 77c-48 0 -89.5 -16.333 -124.5 -49s-55.167 -72.334 -60.5 -119.001h235
v-65h-236c5.33301 -48.667 26 -89.667 62 -123s78.667 -50 128 -50c54.667 0 106.667 27 156 81l51 -48c-28 -33.333 -58.5 -58.333 -91.5 -75s-73.167 -25 -120.5 -25z" />
    <glyph glyph-name="afii10102" unicode="&#x455;" horiz-adv-x="498" 
d="M257 -10c-37.333 0 -75.1689 6.83398 -113.502 20.501s-71.833 32.167 -100.5 55.5l39 55c58.667 -44 118.334 -66 179.001 -66c31.333 0 57 7.66699 77 23s30 35.666 30 60.999c0 23.333 -10.833 41.333 -32.5 54s-53.834 25 -96.501 37c-26 7.33301 -46.667 14 -62 20
s-32.666 14.5 -51.999 25.5s-33.666 25 -42.999 42s-14 37.167 -14 60.5c0 44 16.5 79.667 49.5 107s75.167 41 126.5 41c66.667 0 128.667 -19 186 -57l-35 -58c-51.333 33.333 -102.333 50 -153 50c-30 0 -54.167 -7.16699 -72.5 -21.5s-27.5 -32.833 -27.5 -55.5
c0 -9.33301 2.66699 -18 8 -26s11.333 -14.667 18 -20s17.167 -11 31.5 -17s25.833 -10.333 34.5 -13l41 -13c24.667 -7.33301 45 -14.333 61 -21s33 -15.667 51 -27s31.5 -25.5 40.5 -42.5s13.5 -36.833 13.5 -59.5c0 -48 -17.333 -85.833 -52 -113.5
s-78.667 -41.5 -132 -41.5z" />
    <glyph glyph-name="afii10103" unicode="&#x456;" horiz-adv-x="263" 
d="M93 0v517h77v-517h-77zM88 630v85h88v-85h-88z" />
    <glyph glyph-name="afii10104" unicode="&#x457;" horiz-adv-x="263" 
d="M-1 595v95h90v-95h-90zM175 595v95h90v-95h-90zM93 0v517h77v-517h-77z" />
    <glyph glyph-name="afii10105" unicode="&#x458;" horiz-adv-x="263" 
d="M44 -163c-18 0 -34 1.66699 -48 5v63c12 -2 24.667 -3 38 -3c39.333 0 59 23 59 69v546h77v-547c0 -44.667 -11 -78 -33 -100s-53 -33 -93 -33zM88 630v85h88v-85h-88z" />
    <glyph glyph-name="afii10106" unicode="&#x459;" horiz-adv-x="900" 
d="M61 -8c-20 0 -40.667 2.66113 -62 7.99414l9 66c15.333 -4.66699 27.666 -7 36.999 -7c14.667 0 26.667 1.83301 36 5.5s19.5 13.334 30.5 29.001s19.5 37.834 25.5 66.501s11.167 69.334 15.5 122.001s6.5 116.667 6.5 192v43h366v-194h138c60 0 109 -12.833 147 -38.5
s57 -64.5 57 -116.5c0 -51.333 -17.667 -92.166 -53 -122.499s-82.666 -45.5 -141.999 -45.5h-224v449h-216v-12c0 -78.667 -3 -145.667 -9 -201s-13.5 -98.666 -22.5 -129.999s-21.5 -55.666 -37.5 -72.999s-31.5 -28.5 -46.5 -33.5s-33.5 -7.5 -55.5 -7.5zM525 67.9941
h140c39.333 0 69.833 8.33301 91.5 25s32.5 41 32.5 73c0 29.333 -11.167 51.833 -33.5 67.5s-53.5 23.5 -93.5 23.5h-137v-189z" />
    <glyph glyph-name="afii10107" unicode="&#x45a;" horiz-adv-x="912" 
d="M86 0v516.999h77v-198h298v198h77v-198h139c59.333 0 107.833 -12.667 145.5 -38s56.5 -64 56.5 -116c0 -51.333 -17.5 -91.666 -52.5 -120.999s-81.833 -44 -140.5 -44h-225v252h-298v-252h-77zM538 67.999l140.999 0.000976562c38.667 0 68.834 8.16699 90.501 24.5
s32.5 40.166 32.5 71.499c0 29.333 -11 51.5 -33 66.5s-53 22.5 -93 22.5h-138v-185z" />
    <glyph glyph-name="afii10108" unicode="&#x45b;" horiz-adv-x="616" 
d="M86 0l0.000976562 572h-80v62h80v96h77v-96h213v-62h-213v-155c40.667 67.333 99.667 101 177 101c61.333 0 109.666 -18.833 144.999 -56.5s53 -87.834 53 -150.501v-311h-77v292c0 48.667 -12.5 86.834 -37.5 114.501s-60.167 41.5 -105.5 41.5
c-44.667 0 -81.667 -15 -111 -45s-44 -69 -44 -117v-286h-77z" />
    <glyph glyph-name="afii10109" unicode="&#x45c;" horiz-adv-x="567" 
d="M86 0v517h77v-298l283 298h95l-216 -224l222 -293h-91l-184 237l-109 -112v-125h-77zM256 595l95 145l80 -37l-113 -108h-62z" />
    <glyph glyph-name="afii10110" unicode="&#x45e;" horiz-adv-x="591" 
d="M166 -163c-37.333 0 -74 8.66699 -110 26l26 61c24.667 -12.667 51.667 -19 81 -19c23.333 0 43 7.16699 59 21.5s31.667 39.5 47 75.5l-235 515h85l188 -431l166 431h82l-217 -534c-22 -52.667 -46.333 -90.167 -73 -112.5s-59.667 -33.5 -99 -33.5zM307 591
c-36.667 0 -67.8301 11.333 -93.4971 34s-41.5 52 -47.5 88l53 11c13.333 -46.667 42.666 -70 87.999 -70s74.666 23.333 87.999 70l53 -11c-6 -36 -21.833 -65.333 -47.5 -88s-56.834 -34 -93.501 -34z" />
    <glyph glyph-name="afii10193" unicode="&#x45f;" horiz-adv-x="622" 
d="M276 -129v129h-190v517h77v-449h296v449h77v-517h-184v-129h-76z" />
    <glyph glyph-name="afii10050" unicode="&#x490;" horiz-adv-x="589" 
d="M99 0v700h366v156h68l13 -228h-368v-628h-79z" />
    <glyph glyph-name="afii10098" unicode="&#x491;" horiz-adv-x="463" 
d="M86 0v517h275v129h64l12 -197h-274v-449h-77z" />
    <glyph glyph-name="endash" unicode="&#x2013;" horiz-adv-x="528" 
d="M65 262v77h398v-77h-398z" />
    <glyph glyph-name="emdash" unicode="&#x2014;" horiz-adv-x="898" 
d="M65 262v77h768v-77h-768z" />
    <glyph glyph-name="quoteleft" unicode="&#x2018;" horiz-adv-x="245" 
d="M72 478v90c0 40 8.66699 70.667 26 92s45.333 36.333 84 45l12 -35c-44.667 -16 -67 -42.333 -67 -79v-8h37v-105h-92z" />
    <glyph glyph-name="quoteright" unicode="&#x2019;" horiz-adv-x="245" 
d="M63 473l-11.999 34.999c44.667 16.667 67 42.334 67 77.001v10h-36v105h92v-90c0 -40 -8.83301 -70.667 -26.5 -92s-45.834 -36.333 -84.501 -45z" />
    <glyph glyph-name="quotesinglbase" unicode="&#x201a;" horiz-adv-x="245" 
d="M58 -122l-11.999 34.999c44.667 16.667 67 42.334 67 77.001v10h-36v105h92v-90c0 -40 -8.83301 -70.667 -26.5 -92s-45.834 -36.333 -84.501 -45z" />
    <glyph glyph-name="quotedblleft" unicode="&#x201c;" horiz-adv-x="445" 
d="M72 478v90c0 40 8.66699 70.667 26 92s45.333 36.333 84 45l12 -35c-44.667 -16 -67 -42.333 -67 -79v-8h37v-105h-92zM272 478v90c0 40 8.66699 70.667 26 92s45.333 36.333 84 45l12 -35c-44.667 -16 -67 -42.333 -67 -79v-8h36v-105h-91z" />
    <glyph glyph-name="quotedblright" unicode="&#x201d;" horiz-adv-x="445" 
d="M63 473l-11.999 34.999c44.667 16.667 67 42.334 67 77.001v10h-36v105h92v-90c0 -40 -8.83301 -70.667 -26.5 -92s-45.834 -36.333 -84.501 -45zM263.001 472.999l-12 34.999c44.667 16.667 67 42.334 67 77.001v10h-36v105h91v-90c0 -40 -8.66699 -70.667 -26 -92
s-45.333 -36.333 -84 -45z" />
    <glyph glyph-name="quotedblbase" unicode="&#x201e;" horiz-adv-x="445" 
d="M58 -122l-11.999 34.999c44.667 16.667 67 42.334 67 77.001v10h-36v105h92v-90c0 -40 -8.83301 -70.667 -26.5 -92s-45.834 -36.333 -84.501 -45zM258.001 -122.001l-12 34.999c44.667 16.667 67 42.334 67 77.001v10h-36v105h91v-90c0 -40 -8.66699 -70.667 -26 -92
s-45.333 -36.333 -84 -45z" />
    <glyph glyph-name="dagger" unicode="&#x2020;" horiz-adv-x="410" 
d="M178 238l6 282l-124 -8v55l123 -8l-9 141h62l-9 -141l123 8v-55l-124 8l6 -282h-54z" />
    <glyph glyph-name="daggerdbl" unicode="&#x2021;" horiz-adv-x="430" 
d="M184 0l9 141l-123 -8v55l124 -8l-6 170l6 170l-124 -8v55l123 -8l-9 141h62l-9 -141l123 8v-55l-124 8l6 -170l-6 -170l124 8v-55l-123 8l9 -141h-62z" />
    <glyph glyph-name="bullet" unicode="&#x2022;" horiz-adv-x="478" 
d="M239 221c-36 0 -66.833 12.833 -92.5 38.5s-38.5 56.834 -38.5 93.501c0 36 13 66.667 39 92s56.667 38 92 38s66 -12.833 92 -38.5s39 -56.834 39 -93.501c0 -36 -12.833 -66.667 -38.5 -92s-56.5 -38 -92.5 -38z" />
    <glyph glyph-name="ellipsis" unicode="&#x2026;" horiz-adv-x="723" 
d="M77 0v103h89v-103h-89zM317 0v103h89v-103h-89zM557 0v103h90v-103h-90z" />
    <glyph glyph-name="perthousand" unicode="&#x2030;" horiz-adv-x="1211" 
d="M124 0l514 700h71l-513 -700h-72zM622 -8c-46 0 -83.666 17.5 -112.999 52.5s-44 77.167 -44 126.5c0 48.667 15 90.667 45 126s68 53 114 53s83.667 -17.5 113 -52.5s44 -77.167 44 -126.5s-14.833 -91.5 -44.5 -126.5s-67.834 -52.5 -114.501 -52.5zM624.001 48
c27.333 0 49.333 11.6689 66 35.002s25 52.666 25 87.999c0 34.667 -9 63.834 -27 87.501s-40 35.5 -66 35.5c-26.667 0 -48.5 -11.833 -65.5 -35.5s-25.5 -52.834 -25.5 -87.501s9 -63.834 27 -87.501s40 -35.5 66 -35.5zM999.001 -7.99805
c-46 0 -83.666 17.5 -112.999 52.5s-44 77.167 -44 126.5c0 48.667 15 90.667 45 126s68 53 114 53s83.667 -17.5 113 -52.5s44 -77.167 44 -126.5s-14.833 -91.5 -44.5 -126.5s-67.834 -52.5 -114.501 -52.5zM1001 48.002c27.333 0 49.333 11.6689 66 35.002
s25 52.666 25 87.999c0 34.667 -9 63.834 -27 87.501s-40 35.5 -66 35.5c-26.667 0 -48.5 -11.833 -65.5 -35.5s-25.5 -52.834 -25.5 -87.501s9 -63.834 27 -87.501s40 -35.5 66 -35.5zM210.002 350.004c-46 0 -83.833 17.5 -113.5 52.5s-44.5 77.167 -44.5 126.5
c0 48.667 15 90.667 45 126s68.333 53 115 53c46 0 83.667 -17.5 113 -52.5s44 -77.167 44 -126.5c0 -48.667 -15 -90.667 -45 -126s-68 -53 -114 -53zM212.002 406.004c26.667 0 48.5 11.833 65.5 35.5s25.5 52.834 25.5 87.501s-9 63.834 -27 87.501s-40 35.5 -66 35.5
c-26.667 0 -48.5 -11.833 -65.5 -35.5s-25.5 -52.834 -25.5 -87.501s9 -63.834 27 -87.501s40 -35.5 66 -35.5z" />
    <glyph glyph-name="guilsinglleft" unicode="&#x2039;" horiz-adv-x="328" 
d="M210 41l-162 214v8l162 213l59 -33l-135 -183l135 -185z" />
    <glyph glyph-name="guilsinglright" unicode="&#x203a;" horiz-adv-x="328" 
d="M117 41l-58 33l135 184l-135 184l58 34l162 -213v-8z" />
    <glyph glyph-name="fraction" unicode="&#x2044;" horiz-adv-x="429" 
d="M-68 -98l467 856h76l-467 -856h-76z" />
    <glyph glyph-name="Euro" unicode="&#x20ac;" horiz-adv-x="720" 
d="M430 -12c-70 0 -130.16 22.667 -180.493 68s-84.5 105.666 -102.5 180.999h-91v63h81c-1.33301 10.667 -2 27.334 -2 50.001c0 23.333 1.33301 42.666 4 57.999h-83v62h94c19.333 72 53.666 130.333 102.999 175s106.666 67 171.999 67
c99.333 0 179.666 -45.667 240.999 -137l-60 -43c-26.667 37.333 -53.834 64.833 -81.501 82.5s-61.834 26.5 -102.501 26.5c-43.333 0 -82 -15.667 -116 -47s-59 -72.666 -75 -123.999h257v-62h-270c-2.66699 -14 -4 -33.333 -4 -58c0 -12 0.666992 -28.667 2 -50h272v-63
h-259c15.333 -54.667 41 -98 77 -130s78.333 -48 127 -48c37.333 0 69.833 9.66699 97.5 29s54.5 48 80.5 86l57 -40c-30.667 -46 -64.834 -81.833 -102.501 -107.5s-82.834 -38.5 -135.501 -38.5z" />
    <glyph glyph-name="afii61352" unicode="&#x2116;" horiz-adv-x="1037" 
d="M99 0v700h82l370 -557v557h78v-700h-71l-380 570v-570h-79zM715 161v56h251v-56h-251zM841 288c-39.333 0 -71.834 13.5 -97.501 40.5s-38.5 59.833 -38.5 98.5s13 71.667 39 99s58.667 41 98 41c38.667 0 70.834 -13.5 96.501 -40.5s38.5 -59.833 38.5 -98.5
s-13 -71.667 -39 -99s-58.333 -41 -97 -41zM841.999 339c23.333 0 42.167 8.5 56.5 25.5s21.5 38.167 21.5 63.5c0 24.667 -7.5 45.5 -22.5 62.5s-33.833 25.5 -56.5 25.5c-23.333 0 -42.333 -8.5 -57 -25.5s-22 -38.167 -22 -63.5c0 -24.667 7.66699 -45.5 23 -62.5
s34.333 -25.5 57 -25.5z" />
    <glyph glyph-name="published" unicode="&#x2117;" horiz-adv-x="830" 
d="M414 -12c-100.667 0 -186 35.333 -256 106s-105 156 -105 256c0 99.333 35.333 184.5 106 255.5s156.334 106.5 257.001 106.5s186 -35.333 256 -106s105 -156 105 -256c0 -99.333 -35.333 -184.5 -106 -255.5s-156.334 -106.5 -257.001 -106.5zM414 19
c93.333 0 171.666 32.5 234.999 97.5s95 143.5 95 235.5c0 91.333 -31.5 169 -94.5 233s-140.833 96 -233.5 96c-93.333 0 -171.666 -32.5 -234.999 -97.5s-95 -143.5 -95 -235.5c0 -91.333 31.5 -169 94.5 -233s140.833 -96 233.5 -96zM292 172v371h146
c44 0 79 -10.667 105 -32s39 -51.333 39 -90c0 -39.333 -14.5 -69.833 -43.5 -91.5s-64.833 -32.5 -107.5 -32.5h-83v-125h-56zM348 347h84c28.667 0 51.5 6.5 68.5 19.5s25.5 31.5 25.5 55.5c0 47.333 -31 71 -93 71h-85v-146z" />
    <glyph glyph-name="trademark" unicode="&#x2122;" horiz-adv-x="690" 
d="M125 392v266h-99v42h242v-42h-99v-266h-44zM336 392v308h47l110 -169l109 169h46v-308h-43v236l-110 -167h-6l-109 167v-236h-44z" />
    <glyph glyph-name="partialdiff" unicode="&#x2202;" 
d="M0 0v700h500v-700h-500zM81 49h339l-170 255zM49 96l171 254l-171 254v-508zM450 96v508l-171 -254zM250 395l170 255h-339z" />
    <glyph glyph-name="Delta" unicode="&#x2206;" horiz-adv-x="784" 
d="M44 0l310 704h76l310 -704h-696zM160 72h462l-230 539z" />
    <glyph glyph-name="product" unicode="&#x220f;" 
d="M0 0v700h500v-700h-500zM81 49h339l-170 255zM49 96l171 254l-171 254v-508zM450 96v508l-171 -254zM250 395l170 255h-339z" />
    <glyph glyph-name="summation" unicode="&#x2211;" 
d="M0 0v700h500v-700h-500zM81 49h339l-170 255zM49 96l171 254l-171 254v-508zM450 96v508l-171 -254zM250 395l170 255h-339z" />
    <glyph glyph-name="minus" unicode="&#x2212;" horiz-adv-x="640" 
d="M89 316v74h462v-74h-462z" />
    <glyph glyph-name="radical" unicode="&#x221a;" horiz-adv-x="504" 
d="M236 -196l-170 346l-57 -18l-15 56l105 34l152 -313l209 879h66l-238 -966z" />
    <glyph glyph-name="infinity" unicode="&#x221e;" horiz-adv-x="755" 
d="M188 201c-44 0 -79.501 14.4961 -106.501 43.4961s-40.5 65.5 -40.5 109.5s13.333 81 40 111s61.667 45 105 45c18.667 0 36.834 -3 54.501 -9s35.667 -16.167 54 -30.5s32 -25.666 41 -33.999s23.167 -22.166 42.5 -41.499l31 30.5c17.333 17 29.333 28.167 36 33.5
s17.5 13.333 32.5 24s29.5 17.834 43.5 21.501s29 5.5 45 5.5c44 0 79.667 -14.833 107 -44.5s41 -66.834 41 -111.501c0 -45.333 -13 -82.166 -39 -110.499s-61.667 -42.5 -107 -42.5c-34.667 0 -67 9.66699 -97 29s-61 45.333 -93 78
c-44.667 -41.333 -76.667 -67.666 -96 -78.999c-30.667 -18.667 -62 -28 -94 -28zM187.999 266.996c42 0 91 28.6689 147 86.002c-0.666992 0.666992 -8.5 7.66699 -23.5 21s-25.333 22.166 -31 26.499s-15 11 -28 20s-24.667 15.167 -35 18.5s-20.833 5 -31.5 5
c-24 0 -43.333 -8.83301 -58 -26.5s-22 -38.834 -22 -63.501c0 -26 7.33301 -47 22 -63s34.667 -24 60 -24zM568.999 266.998c25.333 0 45.1689 8.33105 59.502 24.998s21.5 37.334 21.5 62.001c0 26.667 -7.5 48.334 -22.5 65.001s-35.5 25 -61.5 25
c-38 0 -86.333 -30.333 -145 -91c19.333 -18.667 34.166 -32.5 44.499 -41.5s25.666 -18.667 45.999 -29s39.5 -15.5 57.5 -15.5z" />
    <glyph glyph-name="integral" unicode="&#x222b;" 
d="M0 0v700h500v-700h-500zM81 49h339l-170 255zM49 96l171 254l-171 254v-508zM450 96v508l-171 -254zM250 395l170 255h-339z" />
    <glyph glyph-name="approxequal" unicode="&#x2248;" horiz-adv-x="640" 
d="M104 185l-50.001 5c14.667 95.333 56.667 143 126 143c30 0 77.333 -11.833 142 -35.5s108.667 -35.5 132 -35.5c22 0 39.833 7 53.5 21s22.5 32 26.5 54c10.667 -0.666992 27.334 -2.33398 50.001 -5.00098c-4.66699 -39.333 -17.667 -72.666 -39 -99.999
s-50.333 -41 -87 -41c-30 0 -77.667 11.833 -143 35.5s-109.333 35.5 -132 35.5c-20.667 0 -38 -7.5 -52 -22.5s-23 -33.167 -27 -54.5zM103.999 364l-50.001 5c14.667 95.333 56.667 143 126 143c29.333 0 76.5 -11.833 141.5 -35.5s109.167 -35.5 132.5 -35.5
c22 0 39.833 7 53.5 21s22.5 32 26.5 54c10.667 -0.666992 27.334 -2.33398 50.001 -5.00098c-4.66699 -39.333 -17.667 -72.666 -39 -99.999s-50.333 -41 -87 -41c-29.333 0 -77 11.833 -143 35.5s-110 35.5 -132 35.5c-20.667 0 -38 -7.5 -52 -22.5s-23 -33.167 -27 -54.5
z" />
    <glyph glyph-name="notequal" unicode="&#x2260;" horiz-adv-x="640" 
d="M210 75l-61.001 32.001l48 91h-108v74h147l84 159h-231v75h269l32.5 60l35.5 68l61 -31l-28.5 -53c-12.333 -22.667 -20.166 -37.334 -23.499 -44.001h115v-75h-153l-84 -159h237v-74h-276z" />
    <glyph glyph-name="lessequal" unicode="&#x2264;" horiz-adv-x="640" 
d="M72 0v70h496v-70h-496zM568 110l-496 188v79l496 188v-79l-410 -148l410 -149v-79z" />
    <glyph glyph-name="greaterequal" unicode="&#x2265;" horiz-adv-x="640" 
d="M72 0v70h496v-70h-496zM73 110v79l409 149l-409 148v79l495 -188v-79z" />
    <glyph glyph-name="lozenge" unicode="&#x25ca;" horiz-adv-x="640" 
d="M284 -35l-173 391l173 391h70l175 -391l-175 -391h-70zM320 41l134 315l-134 314l-133 -314z" />
    <glyph glyph-name="cyrBreve" unicode="&#xf6d1;" 
d="M250 591c-37.333 0 -69 11.5 -95 34.5s-42 52.5 -48 88.5l54 11c13.333 -46.667 43 -70 89 -70s75.667 23.333 89 70l54 -11c-6 -36 -22 -65.5 -48 -88.5s-57.667 -34.5 -95 -34.5z" />
    <glyph glyph-name="cyrbreve" unicode="&#xf6d4;" 
d="M250 591c-36.667 0 -67.8301 11.333 -93.4971 34s-41.5 52 -47.5 88l53 11c13.333 -46.667 42.666 -70 87.999 -70s74.666 23.333 87.999 70l53 -11c-6 -36 -21.833 -65.333 -47.5 -88s-56.834 -34 -93.501 -34z" />
    <glyph glyph-name="apple" unicode="&#xf8ff;" 
d="M0 0v700h500v-700h-500zM81 49h339l-170 255zM49 96l171 254l-171 254v-508zM450 96v508l-171 -254zM250 395l170 255h-339z" />
    <glyph glyph-name="ff" unicode="&#xfb00;" horiz-adv-x="735" 
d="M115 0v449h-71v67h71v45c0 58.667 15 103 45 133c26.667 26.667 63.667 40 111 40c32.667 0 61 -4.33301 85 -13v-67c-30 8.66699 -55 13 -75 13c-60 0 -90 -36.667 -90 -110v-42h164v-66h-163v-449h-77zM483 0l0.000976562 449.001h-71v67h71v45
c0 59.333 14.667 103.666 44 132.999c28 26.667 65 40 111 40c33.333 0 61.666 -4.33301 84.999 -13v-67c-29.333 8.66699 -54 13 -74 13c-60 0 -90 -36.667 -90 -110v-42h163v-66h-163v-449h-76z" />
    <glyph glyph-name=".null" horiz-adv-x="0" 
 />
    <glyph glyph-name="nonmarkingreturn" horiz-adv-x="333" 
 />
    <glyph glyph-name="nbspace" horiz-adv-x="300" 
 />
    </font>
</defs>
</svg>
